<svg width="1133" height="643" viewBox="0 0 1133 643" fill="none" xmlns="http://www.w3.org/2000/svg">
<path d="M885.14 445.48H850.43L654.79 291.42L550.62 382.45L652.01 445.48H611.82L397.88 285.64L540.65 376.24L655.3 280.79L885.14 445.48Z" fill="url(#paint0_linear_1_2)"/>
<path d="M319.67 322.97L326.78 445.48H308.3L292.52 40.43L319.17 310.79L494.6 165.4L319.67 322.97Z" fill="url(#paint1_linear_1_2)"/>
<path d="M635.47 276.22L507.12 177.03L652.01 278.44L540.65 369.62L635.47 276.22Z" fill="url(#paint2_linear_1_2)"/>
<path d="M362.9 296.07L575.39 445.48L364.59 307.28L325.26 346.35L324.72 330.45L362.9 296.07Z" fill="url(#paint3_linear_1_2)"/>
<path d="M979.9 448.85L501.97 139.88L917.9 445.73L979.9 448.85Z" fill="url(#paint4_linear_1_2)"/>
<path d="M156.93 555.24C176.02 577.73 198.03 603.96 216.92 627.08V629.58H169.2L130.25 581.06V629.58H91.69V483.82H130.25V531.71C141.94 516.3 154.6 499.23 166.09 483.82H212.25V486.32L156.93 555.24ZM316.24 539.42H267.16V484.03H228.6V629.79H267.16V574.61H316.24V629.79H354.41V484.03H316.24V539.42ZM390.22 563.12H382.29V483.82C394.19 483.82 405.97 483.82 417.86 483.82C435.53 483.82 444.03 495.6 444.14 508.97C444.25 521.32 437 532.53 420.24 533.33L447.32 563.12H437L410.72 533.89H390.22V563.12ZM390.22 526.42H417.41C430.1 526.42 436.22 518.94 436.22 508.97C436.22 499 430.1 491.3 417.87 491.3H390.23V526.42H390.22ZM482.88 564.14C466.23 564.14 453.88 552.92 453.88 535.03C453.88 518.26 465.89 506.14 482.54 506.14C499.19 506.14 512.56 516.22 510.41 538.31H461.7C462.72 549.98 471.78 556.89 482.88 556.89C489.68 556.89 497.83 554.17 501.8 549.19L506.9 553.72C501.35 560.63 491.72 564.14 482.88 564.14ZM461.7 531.86H503.28C503.05 519.63 493.88 512.94 482.66 512.94C471.44 512.94 463.17 519.74 461.7 531.86ZM548.82 564.26C532.96 564.26 520.27 552.93 520.27 535.15C520.27 517.48 533.07 506.38 548.93 506.38C557.54 506.38 566.72 510.35 570.91 518.28V507.18H578.05C578.05 525.87 578.05 544.45 578.05 563.14H571.03V552.04C566.15 560.29 557.2 564.26 548.82 564.26ZM549.16 513.28C537.38 513.28 527.86 522 527.86 535.14C527.86 548.39 537.38 557.12 549.16 557.12C578.04 557.12 578.04 513.28 549.16 513.28ZM604.1 483.82H596.51V563.12H604.1V483.82ZM711.15 555.65H662.21V527.1H707.98V519.74H662.21V491.3H710.13V483.82H654.28C654.28 510.22 654.28 536.72 654.28 563.12H711.15V555.65ZM746.61 557.23C739.47 557.12 731.2 554.62 726.45 548.17L721.69 553.38C727.35 561.08 736.87 564.26 746.5 564.26C757.83 564.26 769.27 559.73 769.5 547.95C769.5 534.36 756.47 532.66 746.39 531.18C739.37 530.16 731.21 528.57 731.1 522C730.87 515.77 738.12 512.82 746.28 512.94C752.28 512.94 757.61 513.85 762.82 518.6L767.24 513.62C761.46 508.3 754.55 506.03 746.17 506.03C735.18 505.92 723.63 510.79 723.63 522.23C723.74 533.79 734.96 536.28 745.72 537.86C754.67 539.11 761.92 540.47 761.92 547.83C761.9 555.42 752.95 557.23 746.61 557.23ZM817.07 561.2L814.69 554.86C811.97 556.11 809.14 557.01 806.53 557.01C798.94 557.01 797.01 552.37 797.01 545.34V513.73H815.14V507.27H797.01V490.62L789.42 491.41V507.27H777.98V513.73H789.42V545.34C789.42 557.01 794.29 564.03 806.3 563.92C809.93 563.92 813.44 562.9 817.07 561.2ZM873.94 552.02C869.07 560.29 860.12 564.26 851.74 564.26C835.88 564.26 823.19 552.93 823.19 535.15C823.19 517.48 835.99 506.38 851.85 506.38C860.46 506.38 869.64 510.35 873.83 518.28V507.18H880.97C880.97 525.87 880.97 544.45 880.97 563.14H873.95V552.02H873.94ZM852.07 513.28C840.29 513.28 830.77 522 830.77 535.14C830.77 548.39 840.29 557.12 852.07 557.12C880.96 557.12 880.96 513.28 852.07 513.28ZM930.46 554.85C927.74 556.1 924.91 557 922.3 557C914.71 557 912.78 552.36 912.78 545.33V513.72H930.91V507.26H912.78V490.61L905.19 491.4V507.26H893.75V513.72H905.19V545.33C905.19 557 910.06 564.02 922.07 563.91C925.7 563.91 929.21 562.89 932.83 561.19L930.46 554.85ZM995.49 538.31H946.78C947.8 549.98 956.86 556.89 967.96 556.89C974.76 556.89 982.91 554.17 986.88 549.19L991.98 553.72C986.43 560.63 976.8 564.14 967.96 564.14C951.31 564.14 938.96 552.92 938.96 535.03C938.96 518.26 950.97 506.14 967.62 506.14C984.27 506.14 997.64 516.22 995.49 538.31ZM988.35 531.86C988.12 519.63 978.95 512.94 967.73 512.94C956.52 512.94 948.25 519.74 946.77 531.86H988.35ZM387.12 594.71H382.91V628.59H405.56V624.67H387.12V594.71V594.71ZM432.47 618.18H412.14C412.58 622.58 416.21 625.34 420.8 625.34C423.51 625.34 426.8 624.28 428.4 622.34L431.06 624.76H431.01C428.59 627.62 424.43 629.02 420.7 629.02C413.29 629.02 408.12 624.13 408.12 616.53C408.12 609.32 413.3 604.14 420.51 604.14C427.83 604.14 433.39 608.64 432.47 618.18ZM412.15 614.84H428.7C428.49 610.23 425.3 607.73 420.62 607.73C416.45 607.72 412.82 610.24 412.15 614.84ZM454.98 625.68C459.63 627.04 461.56 630.04 461.56 633.47C461.56 639.67 455.41 642.81 449.07 642.81C441.86 642.81 436.68 639.03 436.82 632.6H440.64C440.64 637.25 444.75 639.13 449.11 639.18C453.22 639.18 457.53 637.68 457.53 633.52C457.53 629.65 453.61 627.76 449.16 627.76C441.66 627.76 436.53 623.4 436.53 615.95C436.53 608.06 443.02 604.09 449.16 604.09C451.34 604.09 454.19 604.67 455.94 605.88L458.51 602.78L461.32 605.01L458.61 608.2C460.5 610.33 461.71 612.46 461.71 615.94C461.71 620.02 459.63 624.18 454.98 625.68ZM457.84 616C457.84 610.53 453.68 607.72 449.18 607.72C444.92 607.72 440.47 610.38 440.47 615.95C440.57 621.42 444.44 624.27 449.23 624.27C454.3 624.28 457.84 620.6 457.84 616ZM487.27 604.68H491.14V628.59H487.32L487.22 628.69L487.12 624.33C485.23 627.62 481.6 629.17 478.31 629.17C471.44 629.17 466.06 624.43 466.06 616.63C466.06 608.89 471.53 604.24 478.35 604.29C481.93 604.29 485.46 605.94 487.21 609.03L487.27 604.68ZM478.55 608.02L478.5 608.07C473.76 608.07 469.93 611.46 469.93 616.78C469.93 622.1 473.75 625.54 478.5 625.54C490.02 625.54 490.02 608.02 478.55 608.02ZM509.43 625.25C504.78 625.25 500.91 622.2 500.91 616.63C500.91 611.26 504.73 608.01 509.48 608.01C511.61 608.01 513.84 608.78 515.53 610.43L518.05 607.82C515.53 605.35 512.63 604.24 509.39 604.24C502.47 604.24 496.9 608.64 496.9 616.63C496.9 624.62 502.56 629.02 509.39 629.02C512.68 629.02 515.73 627.91 518.3 625.34L515.69 622.73C513.98 624.47 511.71 625.25 509.43 625.25ZM518.29 625.34L518.34 625.39L518.29 625.34ZM535.28 617.16L532.71 623.94L530.1 617.12L525.41 604.68H520.91L530.54 628.25L525.55 639.87H529.81L544.91 604.68H540.55L535.28 617.16ZM584.17 616.68C584.17 623.94 578.94 629.02 571.73 629.02C564.57 629.02 559.34 623.94 559.34 616.68C559.34 609.27 564.62 604.14 571.73 604.14C579.04 604.14 584.17 609.27 584.17 616.68ZM580.25 616.68C580.25 611.36 576.57 607.77 571.78 607.77C566.89 607.77 563.31 611.35 563.31 616.68C563.31 621.71 566.84 625.3 571.73 625.3C576.67 625.29 580.2 621.71 580.25 616.68ZM592.16 603.08V604.97H587.47V608.45H592.16V628.58H596.08V608.45H603.58V604.97H596.08V603.08C596.08 599.5 597.73 597.9 600.29 597.9C601.65 597.9 602.66 598.34 603.97 599.11L605.62 596.16C603.97 595.05 602.14 594.42 600.2 594.42C595.16 594.41 592.16 597.61 592.16 603.08ZM592.16 628.63V628.58H592.11L592.16 628.63ZM643.75 609.37H624.39V594.7H620.18V628.58H624.39V613.29H643.75V628.58H647.96V594.7H643.75V609.37ZM655.52 597.37C655.52 600.85 660.75 600.85 660.75 597.42C660.74 593.93 655.52 593.93 655.52 597.37ZM656.1 628.59H660.07V604.58H656.1V628.59ZM675.99 614.69C672.99 614.35 670.09 613.63 670.04 611.16C669.99 608.79 672.65 607.63 675.94 607.68C678.41 607.68 680.59 608.12 682.67 610L682.72 609.95L684.99 607.34C682.42 605.02 679.47 604.15 675.89 604.15C671.29 604.1 666.16 606.09 666.21 611.17C666.21 616.25 671.15 617.46 675.74 618.04C679.42 618.48 682.23 619.25 682.18 621.86C682.08 624.76 678.74 625.59 676.13 625.59C673.18 625.59 669.74 624.53 667.61 621.91L665.34 624.67C668.05 628.06 672.02 629.17 676.04 629.17C681.41 629.17 685.96 626.8 686.06 622.01C686.15 616.1 680.35 615.23 675.99 614.69ZM701.93 625.34C699.07 625.34 698.15 623.55 698.15 620.74V608.11H705.6V604.72H698.19V597.7L694.22 598.14V604.72H689.43V608.11H694.22V620.74C694.22 626.02 696.64 629.02 701.77 628.92C703.37 628.87 704.82 628.48 706.42 627.76L705.26 624.47C704.21 625 703 625.34 701.93 625.34ZM733.98 616.68C733.98 623.94 728.75 629.02 721.54 629.02C714.38 629.02 709.15 623.94 709.15 616.68C709.15 609.27 714.43 604.14 721.54 604.14C728.85 604.14 733.98 609.27 733.98 616.68ZM730.06 616.68C730.06 611.36 726.38 607.77 721.59 607.77C716.7 607.77 713.12 611.35 713.12 616.68C713.12 621.71 716.65 625.3 721.54 625.3C726.47 625.29 730.01 621.71 730.06 616.68ZM743.71 608.21L743.42 604.63L743.37 604.68H739.69V628.59H743.66V615.28C743.66 610.88 746.85 608.17 750.68 608.12C752.33 608.12 753.58 608.56 754.84 609.43L756.63 606.04C755.18 604.93 753.15 604.2 751.06 604.25C748.3 604.24 745.35 605.11 743.71 608.21ZM772.6 617.16L770.03 623.94L767.42 617.12L762.73 604.68H758.23L767.86 628.25L762.87 639.87H767.13L782.23 604.68H777.87L772.6 617.16ZM826.14 624.81V628.63C823.48 628.82 821.01 627.71 820.14 624.42C817.77 628.24 813.9 629.02 810.31 629.02C802.47 629.02 797.39 625.97 797.39 619C797.39 615.42 800.2 612.37 803.49 611.26C800.2 610.24 798.02 607.15 798.02 603.9C798.02 597.75 803.44 594.37 810.41 594.37C816.07 594.37 821.98 596.16 821.98 603.28H818V603.18C818 598.87 814.32 597.9 810.3 597.9C804.49 597.9 802.07 600.8 802.12 603.8C802.17 608.2 807.11 609.51 810.4 609.51H825.45V612.95H822.45V619.24C822.46 622.15 823.28 624.86 826.14 624.81ZM818.63 612.9H810.11C804.35 612.9 801.54 616.09 801.54 618.9C801.54 622.92 804.88 625.24 810.2 625.24C813.35 625.24 818.62 623.79 818.62 619.14V612.9H818.63ZM845.3 628.63H849.51V614.45H868V610.53H849.51V598.72H868.82V594.7H845.3V628.63ZM892.25 617.5C892.25 621.81 889.25 625.24 884.89 625.29C880.34 625.29 877.63 622.43 877.63 617.84V604.68H873.66V617.89C873.66 624.86 877.97 628.97 884.07 628.97C887.41 628.92 890.27 627.66 892.39 624.76L892.58 628.58H896.21V604.67H892.24V617.5H892.25ZM913.94 625.34C911.08 625.34 910.16 623.55 910.16 620.74V608.11H917.61V604.72H910.2V597.7L906.23 598.14V604.72H901.44V608.11H906.23V620.74C906.23 626.02 908.65 629.02 913.78 628.92C915.38 628.87 916.83 628.48 918.43 627.76L917.27 624.47C916.21 625 915 625.34 913.94 625.34ZM940.95 617.5C940.95 621.81 937.95 625.24 933.59 625.29C929.04 625.29 926.33 622.43 926.33 617.84V604.68H922.36V617.89C922.36 624.86 926.67 628.97 932.77 628.97C936.11 628.92 938.97 627.66 941.09 624.76L941.28 628.58H944.91V604.67H940.94V617.5H940.95ZM956.19 608.21L955.9 604.63L955.85 604.68H952.17V628.59H956.14V615.28C956.14 610.88 959.33 608.17 963.16 608.12C964.81 608.12 966.06 608.56 967.32 609.43L969.11 606.04C967.66 604.93 965.63 604.2 963.54 604.25C960.79 604.24 957.84 605.11 956.19 608.21ZM994.96 618.18H974.63C975.07 622.58 978.7 625.34 983.29 625.34C986 625.34 989.29 624.28 990.89 622.34L993.55 624.76H993.5C991.08 627.62 986.92 629.02 983.19 629.02C975.78 629.02 970.61 624.13 970.61 616.53C970.61 609.32 975.79 604.14 983 604.14C990.32 604.14 995.88 608.64 994.96 618.18ZM974.64 614.84H991.19C990.98 610.23 987.79 607.73 983.11 607.73C978.94 607.72 975.31 610.24 974.64 614.84Z" fill="url(#paint5_linear_1_2)"/>
<path d="M302.05 432.31L302.08 431.99H302.04L301.12 408.54L301.15 408.1H301.11L300.01 379.95L300.08 379.73L300.01 379.71L299.8 374.47L299.87 374.24L299.79 374.22L299.58 368.99L299.66 368.75L299.57 368.72L299.37 363.5L299.46 363.26L299.36 363.23L299.16 358.02L299.26 357.78L299.15 357.75L298.95 352.54L299.05 352.29L298.94 352.25L298.74 347.05L298.85 346.8L298.73 346.76L298.53 341.56L298.65 341.31L298.52 341.26L298.32 336.07L298.44 335.82L298.31 335.77L298.11 330.58L298.24 330.33L298.1 330.27L297.9 325.09L298.03 324.84L297.89 324.78L297.69 319.6L297.83 319.36L297.68 319.29L297.48 314.11L297.62 313.87L297.47 313.8L297.27 308.62L297.42 308.38L297.26 308.3L297.06 303.13L297.21 302.89L297.05 302.81L296.85 297.64L297 297.41L296.83 297.32L296.63 292.15L296.79 291.92L296.62 291.83L296.42 286.66L296.58 286.43L296.41 286.33L296.21 281.16L296.37 280.94L296.2 280.84L296 275.67L296.16 275.45L295.98 275.34L295.78 270.17L295.95 269.96L295.77 269.85L295.57 264.68L295.74 264.47L295.56 264.35L295.36 259.18L295.53 258.97L295.35 258.85L295.15 253.68L295.32 253.48L295.14 253.35L294.94 248.18L295.11 247.98L294.93 247.85L294.73 242.68L294.9 242.49L294.72 242.35L294.52 237.18L294.69 236.99L294.5 236.85L294.3 231.68L294.47 231.5L294.28 231.36L294.08 226.19L294.25 226.01L294.06 225.86L293.86 220.69L294.03 220.51L293.84 220.36L293.64 215.19L293.81 215.02L293.62 214.86L293.42 209.69L293.59 209.52L293.4 209.36L293.2 204.19L293.37 204.03L293.18 203.87L292.98 198.7L293.15 198.54L292.97 198.37L292.77 193.2L292.94 193.05L292.76 192.88L292.56 187.71L292.73 187.56L292.55 187.39L292.35 182.21L292.52 182.06L292.34 181.89L292.14 176.71L292.31 176.57L292.13 176.39L291.93 171.21L292.1 171.07L291.92 170.89L291.72 165.71L291.89 165.57L291.71 165.39L291.51 160.21L291.67 160.08L291.49 159.9L291.29 154.72L291.45 154.59L291.28 154.41L291.08 149.22L291.24 149.1L291.07 148.92L290.87 143.73L291.03 143.61L290.86 143.42L290.66 138.23L290.82 138.11L290.65 137.92L290.45 132.73L290.6 132.62L290.43 132.43L290.23 127.23L290.38 127.12L290.22 126.93L290.02 121.73L290.17 121.62L290.01 121.43L289.81 116.23L289.96 116.13L289.8 115.94L289.6 110.74L289.75 110.64L289.59 110.45L289.39 105.24L289.53 105.14L289.37 104.95L289.17 99.74L289.31 99.65L289.16 99.46L288.96 94.25L289.1 94.16L288.95 93.97L288.75 88.75L288.89 88.66L288.74 88.47L288.54 83.25L288.67 83.17L288.53 82.98L288.33 77.76L288.46 77.68L288.32 77.49L288.12 72.26L288.25 72.18L288.11 71.99L287.9 66.76L288.03 66.68L287.89 66.49L287.68 61.25L287.8 61.18L287.67 61L287.46 55.76L287.58 55.69L287.45 55.51L287.24 50.27L287.36 50.2L287.23 50.02L287.02 44.77L287.14 44.7L287.02 44.52L286.97 43.33C286.94 42.38 286.97 41.13 287.01 39.67C287.28 28.55 287.85 5.41 266.82 0.75C266.07 0.58 265.34 0.5 264.64 0.5C262.96 0.5 261.43 0.979993 260.1 1.92999C253.54 6.59999 252.63 21.83 252.47 34.12C249.87 32.12 243.74 27.76 239.83 27.76C239.52 27.76 239.23 27.79 238.96 27.84C237.87 28.05 237.07 28.65 236.6 29.62L236.54 29.75L234.96 303.47H234.83V304.81H234.95L234.93 308.94H234.83V310.28H234.92L234.6 366.05H234.53V367.39H234.6L234.57 372.04H234.53V373.38H234.56L234.53 377.75H234.52V378.71L234.3 416.86H234.22V418.2H234.3L234 438.51L234.83 438.66L238.11 431.47C243.56 419.52 246.46 406.9 246.73 393.95L246.74 391.27C248.18 398.06 250.61 405.4 253.77 412.22C257.75 420.81 262.47 427.71 267.51 432.45L267.53 432.56L267.61 432.55C270.24 435.01 272.97 436.88 275.72 438.1L275.76 438.12L302.49 443.94L302.05 432.31ZM263.94 426.41C265.37 426.26 267.59 426.18 270.55 426.18C281.2 426.18 298.15 427.18 300.38 427.32L300.56 431.89C296.73 431.63 283.85 430.8 275.01 430.8C271.92 430.8 269.61 430.9 268.14 431.11C266.71 429.72 265.3 428.15 263.94 426.41ZM235.51 433.69L235.6 418.22H241.28V416.88H235.61L235.65 409.73H243.57C242.16 416.98 239.89 424.08 236.75 430.96L235.51 433.69ZM266.31 2.06C286.19 6.47 285.64 28.87 285.37 39.65C285.34 40.68 285.32 41.61 285.32 42.42C278.12 33.02 270.12 29.5 264.52 28.22C262.26 27.7 259.98 27.44 257.74 27.44C256.03 27.44 254.73 27.59 253.95 27.72C254.41 17.47 255.88 6.52 260.83 3C261.9 2.24 263.12 1.85999 264.47 1.85999C265.07 1.84999 265.68 1.92 266.31 2.06ZM264.7 51.11C262.35 50.63 259.97 50.39 257.63 50.39C254.7 50.39 252.87 50.77 252.68 50.81L252.26 50.9L252.6 52.2L253.02 52.11C253.09 52.09 254.88 51.73 257.66 51.73C259.91 51.73 262.18 51.96 264.41 52.42C270.39 53.64 279.01 57.16 286.26 66.94L286.38 70.02C279.13 61.27 270.71 58.01 264.75 56.84C262.41 56.38 260.02 56.14 257.64 56.14C254.56 56.14 252.64 56.53 252.56 56.55L252.14 56.64L252.47 57.95L252.89 57.86C252.91 57.86 254.72 57.48 257.63 57.48C259.9 57.48 262.19 57.7 264.43 58.15C270.49 59.35 279.22 62.81 286.47 72.45L286.59 75.55C279.33 66.93 270.82 63.72 264.79 62.56C262.43 62.11 260.02 61.88 257.62 61.88C254.47 61.88 252.47 62.28 252.45 62.28L252.03 62.37L252.26 63.3L252.36 63.68L252.78 63.6C252.86 63.58 254.73 63.23 257.63 63.23C259.93 63.23 262.24 63.45 264.5 63.88C270.64 65.06 279.45 68.46 286.7 77.95L286.82 81.08C279.55 72.58 270.95 69.43 264.85 68.29C262.47 67.85 260.04 67.62 257.61 67.62C254.38 67.62 252.35 68.02 252.34 68.02L251.92 68.11L252.23 69.41L252.65 69.33C252.67 69.33 254.58 68.96 257.6 68.96C259.94 68.96 262.28 69.18 264.57 69.61C270.77 70.77 279.67 74.12 286.91 83.45L287.03 86.6C279.75 78.23 271.06 75.12 264.88 74.01C262.49 73.58 260.03 73.36 257.58 73.36C254.38 73.36 252.3 73.74 252.21 73.76L251.78 73.84L252.09 75.15L252.51 75.07C252.53 75.07 254.48 74.7 257.57 74.7C259.93 74.7 262.3 74.91 264.62 75.33C270.9 76.47 279.88 79.76 287.12 88.95L287.24 92.13C279.95 83.88 271.17 80.83 264.92 79.73C262.51 79.31 260.03 79.09 257.55 79.09C254.21 79.09 252.1 79.48 252.08 79.49L251.66 79.57L251.96 80.88L252.38 80.8C252.46 80.78 254.44 80.43 257.55 80.43C259.94 80.43 262.33 80.64 264.67 81.05C271.03 82.17 280.1 85.4 287.33 94.45L287.46 97.66C280.15 89.54 271.3 86.53 264.97 85.46C262.54 85.05 260.04 84.84 257.54 84.84C254.23 84.84 252.06 85.22 251.97 85.23L251.54 85.31L251.83 86.63L252.25 86.55C252.27 86.55 254.31 86.18 257.52 86.18C259.94 86.18 262.35 86.38 264.71 86.78C271.14 87.88 280.3 91.06 287.54 99.95L287.67 103.18C280.35 95.18 271.41 92.23 265.01 91.18C262.56 90.78 260.04 90.57 257.52 90.57C254.06 90.57 251.87 90.96 251.84 90.96L251.42 91.04L251.7 92.35L252.12 92.28C252.14 92.28 254.24 91.91 257.51 91.91C259.95 91.91 262.39 92.11 264.76 92.5C271.27 93.58 280.52 96.7 287.75 105.45L287.88 108.71C280.55 100.84 271.52 97.94 265.05 96.9C262.58 96.51 260.05 96.31 257.5 96.31C254.02 96.31 251.75 96.69 251.72 96.7L251.29 96.77L251.57 98.09L251.99 98.02C252.08 98.01 254.18 97.66 257.49 97.66C259.95 97.66 262.4 97.85 264.79 98.23C271.38 99.28 280.73 102.35 287.97 110.96L288.1 114.24C280.76 106.49 271.64 103.64 265.09 102.63C262.61 102.25 260.05 102.05 257.48 102.05C253.97 102.05 251.69 102.42 251.6 102.43L251.17 102.5L251.44 103.82L251.87 103.75C251.89 103.75 254.06 103.39 257.48 103.39C259.96 103.39 262.44 103.58 264.84 103.95C271.51 104.98 280.94 107.99 288.18 116.46L288.31 119.77C280.96 112.15 271.75 109.35 265.13 108.36C262.63 107.99 260.06 107.8 257.47 107.8C253.92 107.8 251.58 108.16 251.48 108.18L251.05 108.25L251.31 109.57L251.74 109.5C251.76 109.5 253.99 109.14 257.47 109.14C259.98 109.14 262.49 109.33 264.92 109.69C271.66 110.7 281.17 113.66 288.4 121.97L288.53 125.3C281.17 117.81 271.88 115.06 265.18 114.08C262.67 113.71 260.07 113.53 257.47 113.53C253.94 113.53 251.62 113.87 251.37 113.91L250.94 113.98L251.2 115.3L251.63 115.23C251.65 115.23 253.92 114.87 257.47 114.87C260 114.87 262.53 115.05 264.98 115.41C271.79 116.4 281.4 119.3 288.63 127.47L288.76 130.83C281.39 123.46 272.01 120.76 265.24 119.81C262.71 119.45 260.1 119.27 257.47 119.27C253.69 119.27 251.28 119.64 251.25 119.65L250.83 119.72L251.01 120.65L251.08 121.03L251.5 120.97C251.75 120.93 254 120.61 257.46 120.61C260.01 120.61 262.55 120.79 265 121.13C271.89 122.1 281.6 124.95 288.83 132.97L288.96 136.35C281.58 129.11 272.11 126.46 265.27 125.53C262.73 125.18 260.1 125.01 257.45 125.01C253.63 125.01 251.14 125.38 251.12 125.38L250.7 125.45L250.94 126.77L251.37 126.71C251.39 126.71 253.77 126.35 257.46 126.35C260.04 126.35 262.6 126.52 265.08 126.86C272.04 127.81 281.83 130.6 289.06 138.47L289.19 141.87C281.8 134.75 272.24 132.16 265.33 131.25C262.77 130.91 260.13 130.74 257.47 130.74C253.56 130.74 251.05 131.11 251.02 131.11L250.59 131.17L250.83 132.49L251.25 132.43C251.35 132.42 253.78 132.08 257.46 132.08C260.06 132.08 262.64 132.25 265.13 132.58C272.17 133.51 282.04 136.25 289.27 143.97L289.4 147.4C282 140.41 272.35 137.86 265.36 136.97C262.79 136.64 260.13 136.48 257.45 136.48C253.5 136.48 250.9 136.85 250.88 136.85L250.46 136.92L250.69 138.24L251.12 138.18C251.22 138.17 253.68 137.83 257.46 137.83C260.08 137.83 262.68 137.99 265.18 138.31C272.3 139.22 282.25 141.9 289.48 149.48L289.62 152.93C282.21 146.07 272.48 143.57 265.41 142.7C262.83 142.38 260.16 142.22 257.46 142.22C253.49 142.22 250.88 142.57 250.77 142.59L250.34 142.65L250.5 143.59L250.57 143.98L250.99 143.92C251.26 143.88 253.74 143.57 257.46 143.57C260.09 143.57 262.71 143.73 265.23 144.04C272.42 144.93 282.47 147.55 289.7 154.99L289.84 158.47C282.42 151.73 272.6 149.29 265.46 148.44C262.87 148.13 260.18 147.98 257.47 147.98C253.39 147.98 250.68 148.34 250.65 148.34L250.22 148.4L250.44 149.73L250.87 149.67C250.9 149.67 253.53 149.32 257.46 149.32C260.11 149.32 262.74 149.47 265.28 149.78C272.55 150.65 282.68 153.22 289.91 160.51L290.05 164.01C282.62 157.4 272.71 155 265.5 154.18C262.9 153.88 260.2 153.73 257.47 153.73C253.27 153.73 250.55 154.09 250.52 154.09L250.09 154.15L250.3 155.48L250.73 155.42C250.76 155.42 253.4 155.07 257.46 155.07C260.13 155.07 262.77 155.22 265.32 155.51C272.66 156.36 282.89 158.87 290.12 166.02L290.26 169.54C282.82 163.05 272.82 160.71 265.54 159.9C262.93 159.61 260.22 159.46 257.48 159.46C253.25 159.46 250.43 159.81 250.4 159.82L249.97 159.88L250.18 161.21L250.61 161.15C250.64 161.15 253.38 160.8 257.48 160.8C260.16 160.8 262.82 160.94 265.38 161.23C272.8 162.06 283.11 164.51 290.34 171.51L290.48 175.05C283.03 168.69 272.94 166.4 265.59 165.61C262.97 165.33 260.25 165.19 257.5 165.19C253.27 165.19 250.41 165.53 250.29 165.55L249.86 165.6L250.06 166.93L250.49 166.88C250.52 166.88 253.2 166.55 257.33 166.55C265.65 166.55 280.96 167.92 290.56 177.02L290.7 180.58C283.24 174.35 273.07 172.11 265.64 171.34C263.01 171.07 260.28 170.93 257.52 170.93C253.15 170.93 250.2 171.28 250.17 171.28L249.74 171.33L249.94 172.66L250.37 172.61C250.4 172.61 253.18 172.28 257.34 172.28C265.75 172.28 281.19 173.62 290.78 182.51L290.92 186.09C283.45 179.98 273.19 177.79 265.69 177.05C263.06 176.79 260.32 176.66 257.54 176.66C253.05 176.66 250.08 177.01 250.05 177.01L249.62 177.06L249.81 178.39L250.24 178.34C250.27 178.34 253.06 178.01 257.36 178.01C265.84 178.01 281.42 179.32 290.99 188.01L291.13 191.62C283.65 185.64 273.3 183.5 265.73 182.77C263.09 182.52 260.35 182.39 257.57 182.39C253.08 182.39 250.06 182.72 249.94 182.74L249.51 182.79L249.7 184.12L250.13 184.07C250.16 184.07 253.05 183.75 257.41 183.75C265.97 183.75 281.67 185.03 291.23 193.52L291.37 197.15C283.88 191.3 273.45 189.21 265.79 188.5C263.15 188.26 260.39 188.13 257.61 188.13C252.95 188.13 249.85 188.47 249.83 188.48L249.4 188.53L249.58 189.86L250.01 189.81C250.04 189.81 252.98 189.49 257.44 189.49C266.08 189.49 281.9 190.74 291.44 199.03L291.58 202.68C284.08 196.95 273.56 194.92 265.83 194.23C263.19 194 260.43 193.88 257.64 193.88C252.88 193.88 249.73 194.22 249.7 194.22L249.27 194.27L249.45 195.6L249.88 195.55C249.91 195.55 252.92 195.23 257.46 195.23C266.17 195.23 282.12 196.45 291.65 204.53L291.79 208.2C284.28 202.6 273.67 200.61 265.87 199.95C263.22 199.72 260.46 199.61 257.67 199.61C252.86 199.61 249.61 199.95 249.57 199.95L249.14 200L249.31 201.33L249.74 201.28C249.77 201.28 252.83 200.96 257.48 200.96C266.27 200.96 282.33 202.15 291.85 210.03L291.99 213.72C284.47 208.25 273.78 206.31 265.9 205.67C263.25 205.45 260.49 205.34 257.69 205.34C252.81 205.34 249.46 205.68 249.43 205.68L249 205.73L249.17 207.06L249.6 207.02C249.63 207.02 252.81 206.7 257.51 206.7C266.37 206.7 282.55 207.86 292.06 215.54L292.21 219.25C284.68 213.9 273.9 212.02 265.95 211.4C263.31 211.19 260.55 211.09 257.75 211.09C252.81 211.09 249.46 211.42 249.32 211.43L248.89 211.47L249.05 212.8L249.48 212.76C249.51 212.76 252.71 212.44 257.56 212.44C266.49 212.44 282.78 213.57 292.28 221.05L292.43 224.78C284.89 219.56 274.02 217.73 266 217.13C263.36 216.93 260.6 216.83 257.8 216.83C252.7 216.83 249.23 217.16 249.2 217.17L248.77 217.21L248.93 218.54L249.36 218.5C249.39 218.5 252.73 218.18 257.62 218.18C266.62 218.18 283.02 219.28 292.5 226.56L292.65 230.31C285.1 225.22 274.14 223.44 266.05 222.85C263.41 222.66 260.66 222.56 257.86 222.56C252.63 222.56 249.11 222.89 249.08 222.9L248.65 222.94L248.8 224.27L249.23 224.23C249.26 224.23 252.69 223.91 257.67 223.91C266.74 223.91 283.24 224.98 292.71 232.05L292.86 235.82C285.3 230.85 274.26 229.13 266.09 228.56C263.46 228.38 260.72 228.29 257.93 228.29C252.59 228.29 249 228.62 248.96 228.62L248.53 228.66L248.68 229.99L249.11 229.95C249.14 229.95 252.64 229.64 257.74 229.64C266.87 229.64 283.48 230.68 292.93 237.55L293.08 241.34C283.17 235.01 266.87 234.03 257.78 234.03C252.51 234.03 248.88 234.35 248.84 234.35L248.41 234.39L248.56 235.72L248.99 235.68C249.02 235.68 252.55 235.37 257.82 235.37C267.01 235.37 283.72 236.38 293.15 243.05L293.3 246.86C283.41 240.71 267.01 239.76 257.86 239.76C252.46 239.76 248.76 240.07 248.73 240.08L248.3 240.12L248.44 241.45L248.87 241.41C248.91 241.41 252.54 241.1 257.9 241.1C267.16 241.1 283.96 242.08 293.37 248.55L293.52 252.38C284.19 246.72 269.17 245.5 257.94 245.5C252.43 245.5 248.64 245.81 248.6 245.82L248.17 245.86L248.31 247.19L248.74 247.15C248.78 247.15 252.56 246.84 257.98 246.84C267.3 246.84 284.18 247.79 293.58 254.06L293.73 257.9C284.42 252.42 269.32 251.23 258.03 251.23C252.4 251.23 248.52 251.54 248.48 251.54L248.05 251.58L248.18 252.92L248.61 252.88C248.65 252.88 252.45 252.57 258.07 252.57C267.44 252.57 284.41 253.49 293.79 259.56L293.94 263.42C284.65 258.11 269.48 256.96 258.13 256.96C252.35 256.96 248.39 257.27 248.35 257.27L247.92 257.3L248.05 258.64L248.48 258.61C248.52 258.61 252.45 258.3 258.17 258.3C267.59 258.3 284.64 259.19 294 265.07L294.15 268.95C284.88 263.81 269.65 262.7 258.24 262.7C252.3 262.7 248.27 263.01 248.23 263.01L247.8 263.04L247.93 264.38L248.36 264.35C248.4 264.35 252.48 264.04 258.29 264.04C267.76 264.04 284.89 264.9 294.22 270.58L294.37 274.47C285.12 269.51 269.84 268.44 258.36 268.44C252.3 268.44 248.15 268.75 248.1 268.75L247.67 268.78L247.79 270.12L248.22 270.09C248.26 270.09 252.44 269.78 258.4 269.78C267.92 269.78 285.11 270.61 294.42 276.09L294.57 280C285.35 275.21 270.01 274.18 258.49 274.18C252.3 274.18 248.02 274.49 247.98 274.49L247.55 274.52L247.67 275.86L248.1 275.83C248.14 275.83 252.47 275.52 258.54 275.52C270.21 275.52 285.84 276.59 294.64 281.6L294.79 285.53C285.6 280.92 270.21 279.92 258.64 279.92C252.32 279.92 247.9 280.23 247.86 280.23L247.43 280.26L247.55 281.6L247.98 281.57C248.02 281.57 252.38 281.26 258.7 281.26C270.41 281.26 286.09 282.29 294.86 287.11L295.01 291.05C285.85 286.61 270.42 285.65 258.81 285.65C252.3 285.65 247.78 285.96 247.74 285.96L247.31 285.99L247.42 287.33L247.85 287.3C247.89 287.3 252.41 286.99 258.86 286.99C270.61 286.99 286.33 287.98 295.07 292.62L295.23 296.58C286.1 292.32 270.64 291.39 258.99 291.39C252.39 291.39 247.66 291.7 247.62 291.7L247.26 291.72L247.27 290.18L248.68 51.25C248.68 50.56 248.93 50.42 249.68 50.01C250.01 49.83 250.38 49.63 250.78 49.34C251.77 48.62 252.91 47.58 253.41 46.36C254 46.26 255.52 46.03 257.67 46.03C259.89 46.03 262.14 46.27 264.34 46.73C270.24 47.97 278.78 51.55 286.02 61.47L286.14 64.52C278.92 55.62 270.59 52.31 264.7 51.11ZM259.81 420.46C261.29 420.29 263.74 420.21 267.14 420.21C278.36 420.21 296.15 421.11 300.15 421.32L300.33 425.97C297.51 425.8 281.2 424.83 270.65 424.83C267.03 424.83 264.46 424.95 262.99 425.17C261.91 423.71 260.84 422.13 259.81 420.46ZM256.51 414.52C257.97 414.33 260.63 414.24 264.45 414.24C276.3 414.24 295.93 415.16 299.92 415.36L300.1 419.98C295.84 419.76 278.37 418.87 267.26 418.87C263.31 418.87 260.55 418.98 259.06 419.21C258.18 417.71 257.33 416.15 256.51 414.52ZM235.65 408.39L235.69 401.24H244.63V399.9H235.7L235.74 392.75H244.93V391.41H235.74L235.78 384.82H244.92C245.03 388.28 245.14 391.25 245.25 393.68V393.94C245.15 398.81 244.67 403.63 243.82 408.39H235.65ZM246.8 380.69L246.81 379C249.35 378.91 256.81 378.68 265.65 378.68C276.49 378.68 290.83 379.05 298.56 380.76L298.69 384.17C293.97 383.98 270.32 383.04 256.2 383.04C251.75 383.04 248.66 383.14 246.99 383.32C246.9 382.42 246.84 381.54 246.8 380.69ZM265.61 377.33C256.87 377.33 249.43 377.56 246.82 377.65L246.84 373.26C249.19 373.17 256.27 372.94 264.79 372.94C275.85 372.94 290.48 373.34 298.34 375.24L298.5 379.36C290.54 377.69 276.36 377.33 265.61 377.33ZM264.75 371.6C256.34 371.6 249.28 371.83 246.85 371.91L246.87 367.52C249.05 367.44 255.88 367.21 264.03 367.21C275.27 367.21 290.15 367.65 298.12 369.72L298.28 373.84C290.18 372 275.71 371.6 264.75 371.6ZM263.99 365.87C255.91 365.87 249.15 366.1 246.88 366.18L246.9 361.79C248.91 361.71 255.46 361.48 263.36 361.48C274.75 361.48 289.83 361.96 297.9 364.21L298.06 368.32C289.83 366.31 275.13 365.87 263.99 365.87ZM241.74 207.37C241.76 208.75 241.78 210.12 241.8 211.5H236.8L236.82 207.37H241.74ZM241.81 212.84C241.83 214.22 241.85 215.59 241.87 216.97H236.76L236.78 212.84H241.81ZM240.65 120.94C240.67 122.49 240.69 124.05 240.71 125.63H237.3L237.33 120.94H240.65ZM240.72 126.97C240.74 128.43 240.75 129.9 240.77 131.38H237.26L237.29 126.97H240.72ZM240.79 132.72C240.81 134.18 240.83 135.65 240.84 137.13H237.22L237.25 132.72H240.79ZM240.85 138.47C240.87 139.93 240.89 141.4 240.9 142.88H237.18L237.21 138.47H240.85ZM240.92 144.22C240.94 145.68 240.96 147.16 240.97 148.64H237.15L237.18 144.22H240.92ZM241 149.98C241.02 151.37 241.03 152.77 241.05 154.18H237.13L237.15 149.98H241ZM241.06 155.52C241.08 156.98 241.1 158.45 241.12 159.93H237.09L237.12 155.52H241.06ZM241.14 161.28C241.16 163.02 241.18 164.77 241.21 166.52H237.06L237.09 161.28H241.14ZM241.22 167.86C241.24 169.23 241.26 170.61 241.27 171.99H237.02L237.04 167.86H241.22ZM241.29 173.33C241.31 174.7 241.33 176.08 241.34 177.46H236.99L237.01 173.33H241.29ZM241.36 178.81C241.38 180.09 241.39 181.38 241.41 182.66H236.96L236.98 178.81H241.36ZM241.43 184.01C241.45 185.48 241.47 186.95 241.49 188.42H236.93L236.96 184.01H241.43ZM241.5 189.76C241.52 191.32 241.54 192.88 241.56 194.45H236.89L236.92 189.76H241.5ZM241.58 195.79C241.6 197.3 241.62 198.81 241.64 200.32H236.85L236.88 195.79H241.58ZM241.66 201.66C241.68 203.11 241.7 204.57 241.72 206.02H236.82L236.85 201.66H241.66ZM241.89 218.31C241.91 219.82 241.93 221.33 241.95 222.83H236.72L236.75 218.31H241.89ZM241.97 224.18C241.99 225.92 242.02 227.65 242.04 229.39H236.69L236.72 224.18H241.97ZM242.06 230.73C242.08 232.02 242.1 233.3 242.11 234.58H236.65L236.67 230.73H242.06ZM242.14 235.92C242.16 237.39 242.18 238.86 242.2 240.33H236.63L236.66 235.92H242.14ZM242.22 241.68C242.24 243.15 242.26 244.62 242.28 246.09H236.59L236.62 241.68H242.22ZM242.3 247.43C242.32 248.99 242.35 250.56 242.37 252.12H236.55L236.58 247.43H242.3ZM242.39 253.46C242.41 254.75 242.43 256.03 242.45 257.31H236.53L236.55 253.46H242.39ZM242.47 258.65C242.49 260.18 242.52 261.7 242.54 263.22H236.49L236.52 258.65H242.47ZM242.56 264.56C242.58 266.16 242.61 267.76 242.63 269.35H236.45L236.48 264.56H242.56ZM242.65 270.69C242.67 271.94 242.69 273.19 242.71 274.44H236.43L236.45 270.69H242.65ZM242.73 275.78C242.76 277.44 242.78 279.1 242.81 280.75H236.39L236.42 275.78H242.73ZM242.83 282.09C242.85 283.38 242.87 284.66 242.89 285.94H236.36L236.38 282.09H242.83ZM242.92 287.29C242.94 288.77 242.97 290.24 242.99 291.7H236.33L236.36 287.29H242.92ZM243.01 293.04C243.04 294.61 243.06 296.17 243.09 297.73H236.3L236.33 293.04H243.01ZM243.41 316.32C243.43 317.71 243.46 319.09 243.48 320.45H236.16L236.18 316.32H243.41ZM243.51 321.8C243.54 323.38 243.57 324.95 243.6 326.51H236.13L236.16 321.8H243.51ZM243.62 327.84C243.65 329.29 243.67 330.72 243.7 332.14H236.1L236.12 327.84H243.62ZM243.72 333.49C243.75 334.94 243.78 336.37 243.8 337.79H236.05L236.07 333.49H243.72ZM243.83 339.13C243.86 340.58 243.89 342.02 243.92 343.43H236.03L236.05 339.13H243.83ZM243.95 344.77C243.98 346.22 244.01 347.66 244.04 349.07H236L236.02 344.77H243.95ZM244.06 350.41C244.09 351.87 244.12 353.3 244.15 354.71H235.96L235.98 350.41H244.06ZM244.19 356.05C244.22 357.51 244.25 358.95 244.29 360.35H235.94L235.96 356.05H244.19ZM257.11 390.36C271.27 390.36 295.3 391.34 298.97 391.5L299.15 396.13C295.98 395.99 272.9 394.99 259.1 394.99C254.28 394.99 251.11 395.12 249.68 395.36L249.26 395.43L249.3 395.62C248.85 393.94 248.46 392.28 248.12 390.66C249.58 390.46 252.6 390.36 257.11 390.36ZM249.96 396.67C251.28 396.44 254.32 396.32 258.97 396.32C272.74 396.32 296.66 397.35 299.21 397.46L299.39 402.05C294.44 401.83 273.07 400.94 260.02 400.94C255.6 400.94 252.57 401.05 251 401.25C250.49 399.73 250.03 398.22 249.6 396.72L249.96 396.67ZM259.89 402.3C272.94 402.3 294.79 403.21 299.45 403.42L299.63 408.04C294.33 407.8 274.31 406.93 261.92 406.93C257.71 406.93 254.79 407.03 253.21 407.24C252.58 405.7 252 404.14 251.45 402.58C252.97 402.39 255.81 402.3 259.89 402.3ZM263.32 360.15C255.44 360.15 249.02 360.37 246.91 360.46L246.93 356.07C248.77 355.99 255.03 355.76 262.77 355.76C274.28 355.76 289.53 356.28 297.69 358.71L297.85 362.81C289.5 360.62 274.61 360.15 263.32 360.15ZM262.72 354.42C255.12 354.42 248.89 354.65 246.94 354.72L246.96 350.33C248.63 350.26 254.71 350.02 262.23 350.02C273.84 350.02 289.23 350.58 297.47 353.19L297.63 357.28C289.17 354.93 274.13 354.42 262.72 354.42ZM262.18 348.69C254.73 348.69 248.76 348.92 246.97 348.99L246.99 344.6C248.48 344.53 254.29 344.29 261.75 344.29C273.44 344.29 288.94 344.89 297.25 347.68L297.41 351.76C288.86 349.23 273.68 348.69 262.18 348.69ZM261.71 342.95C254.38 342.95 248.62 343.18 247.01 343.25L247.03 338.86C248.3 338.8 253.97 338.55 261.33 338.55C273.08 338.55 288.67 339.18 297.04 342.16L297.2 346.23C288.56 343.54 273.28 342.95 261.71 342.95ZM261.28 337.22C254.15 337.22 248.48 337.46 247.04 337.52L247.06 333.13C248.11 333.08 253.66 332.82 260.94 332.82C272.73 332.82 288.4 333.49 296.83 336.65L296.99 340.71C288.27 337.84 272.91 337.22 261.28 337.22ZM260.89 331.49C253.75 331.49 248.32 331.73 247.07 331.8L247.09 327.41C247.82 327.37 253.34 327.1 260.59 327.1C272.41 327.1 288.13 327.81 296.61 331.15L296.77 335.2C287.98 332.15 272.56 331.49 260.89 331.49ZM260.54 325.76C253.45 325.76 248.12 326.01 247.1 326.07L247.12 321.68H247.13C247.18 321.68 252.67 321.37 260.27 321.37C272.11 321.37 287.86 322.12 296.39 325.64L296.55 329.68C287.71 326.45 272.23 325.76 260.54 325.76ZM260.22 320.02C253.21 320.02 247.87 320.29 247.13 320.33L247.15 315.94L247.25 315.93C247.47 315.92 252.72 315.62 259.98 315.62C271.83 315.62 287.6 316.41 296.18 320.12L296.34 324.14C287.43 320.76 271.93 320.02 260.22 320.02ZM259.93 314.29C252.6 314.29 247.21 314.6 247.16 314.6L247.18 310.22L247.38 310.21C247.43 310.21 252.57 309.9 259.72 309.9C271.56 309.9 287.34 310.73 295.96 314.62L296.12 318.63C287.16 315.06 271.65 314.29 259.93 314.29ZM259.67 308.56C252.51 308.56 247.33 308.87 247.28 308.87L247.19 308.88L247.21 304.5L247.5 304.48C247.55 304.48 252.56 304.17 259.48 304.17C271.31 304.17 287.09 305.04 295.74 309.12L295.9 313.12C286.9 309.36 271.38 308.56 259.67 308.56ZM259.43 302.82C252.45 302.82 247.45 303.13 247.4 303.13L247.22 303.14L247.24 298.76L247.62 298.73C247.67 298.73 252.5 298.42 259.26 298.42C271.07 298.42 286.84 299.33 295.53 303.59L295.69 307.57C286.64 303.67 271.13 302.82 259.43 302.82ZM259.21 297.09C252.45 297.09 247.56 297.4 247.52 297.4L247.25 297.42L247.28 292.5L247.32 293.03L247.75 293C247.8 293 252.52 292.69 259.07 292.69C270.85 292.69 286.6 293.64 295.32 298.09L295.48 302.06C286.38 297.97 270.89 297.09 259.21 297.09ZM264.66 45.39C262.33 44.9 259.98 44.65 257.66 44.65C255.88 44.65 254.51 44.8 253.68 44.92C253.72 43.66 253.73 42.2 253.73 40.56C254.41 40.45 255.81 40.27 257.7 40.27C259.89 40.27 262.11 40.51 264.29 40.98C270.11 42.25 278.56 45.87 285.81 55.95L285.93 58.97C278.72 49.97 270.47 46.61 264.66 45.39ZM264.61 39.66C262.3 39.16 259.97 38.91 257.69 38.91C255.91 38.91 254.56 39.06 253.75 39.19C253.75 38.51 253.76 37.8 253.76 37.07L253.78 36.71V35.3C253.78 35.15 253.78 34.99 253.79 34.83C254.42 34.72 255.82 34.52 257.75 34.52C259.9 34.52 262.08 34.76 264.23 35.24C269.99 36.52 278.36 40.2 285.62 50.44L285.74 53.43C278.51 44.32 270.35 40.9 264.61 39.66ZM264.57 33.94C262.29 33.43 259.98 33.17 257.72 33.17C255.95 33.17 254.58 33.33 253.8 33.46C253.82 32.04 253.86 30.58 253.91 29.09C254.53 28.98 255.89 28.78 257.77 28.78C259.89 28.78 262.04 29.03 264.17 29.51C269.85 30.81 278.13 34.55 285.4 44.94L285.52 47.91C278.31 38.66 270.23 35.2 264.57 33.94ZM252.28 37.06L251.87 45.3C251.83 46.17 251.33 46.99 250.54 47.49L247.69 49.3C241.64 40.97 239.92 45.75 239.93 50.89C239.94 56.59 240.2 83.29 240.63 119.61H237.32L237.84 30.07C238.12 29.57 238.52 29.29 239.09 29.18C239.27 29.15 239.47 29.13 239.69 29.13C243.63 29.13 250.9 34.8 252.29 35.91C252.29 36.28 252.28 36.67 252.28 37.06ZM243.11 299.07C243.13 300.55 243.16 302.02 243.18 303.48H236.26L236.29 299.07H243.11ZM243.21 304.82C243.23 306.21 243.26 307.58 243.28 308.95H236.23L236.25 304.82H243.21ZM243.3 310.29C243.33 311.86 243.35 313.43 243.38 314.98H236.19L236.22 310.29H243.3ZM244.31 361.7C244.34 363.19 244.38 364.65 244.41 366.07H235.89L235.92 361.7H244.31ZM244.45 367.41C244.49 369.01 244.53 370.56 244.57 372.06H235.87L235.9 367.41H244.45ZM244.6 373.4C244.7 377.08 244.79 380.45 244.89 383.48H235.8L235.83 379.11H244.64V377.77H235.84L235.87 373.4H244.6ZM256.06 384.39C270.19 384.39 294.4 385.34 298.75 385.52L298.93 390.15C294.89 389.98 271.32 389.01 257.26 389.01C252.58 389.01 249.42 389.12 247.86 389.34C247.56 387.74 247.32 386.17 247.14 384.66C248.68 384.48 251.67 384.39 256.06 384.39ZM261.79 408.27C274.37 408.27 295.01 409.17 299.68 409.38L299.86 414.01C295.55 413.8 276.47 412.89 264.56 412.89C260.25 412.89 257.33 413.01 255.87 413.25C255.62 412.74 255.38 412.22 255.13 411.7C254.64 410.65 254.17 409.59 253.72 408.51C255.27 408.35 257.97 408.27 261.79 408.27ZM274.91 432.15C283.74 432.15 297 433 300.61 433.24L300.96 442.23L276.3 436.87C273.98 435.84 271.68 434.3 269.44 432.33C270.79 432.2 272.62 432.15 274.91 432.15Z" fill="url(#paint6_linear_1_2)"/>
<path d="M1132.56 456.4C790.04 450.73 446.17 434.35 104.05 455.05C55.88 462.27 14.88 475.94 55.29 520.24C56.44 521.5 86.04 551.46 86.04 551.46L85.94 587.69C85.94 587.69 55.74 561.8 54.67 560.82C-47.72 467.73 13.55 439.25 91.39 430.45C97.35 429.67 103.34 429.04 109.34 428.52L228.14 339.02V368.37L153.19 426.19C157.78 426.05 162.37 425.92 166.95 425.79C171.26 425.76 175.58 425.76 179.89 425.74L228.15 386.1V406.08L206.19 425.66C215.23 425.65 489.15 429.15 581.07 432.15L372.09 287.65L501.87 171.45L387.71 284.53L582.79 432.22C688.54 435.69 794.26 440.26 899.96 445.2L494.49 159.25L324.21 293.75L323.04 267.95L492.23 141.67L899.98 445.2C977.52 448.82 1055.05 452.65 1132.56 456.4Z" fill="url(#paint7_linear_1_2)"/>
<defs>
<linearGradient id="paint0_linear_1_2" x1="397.878" y1="363.138" x2="885.137" y2="363.138" gradientUnits="userSpaceOnUse">
<stop stop-color="#E9C164"/>
<stop offset="0.23" stop-color="#9F6D33"/>
<stop offset="0.33" stop-color="#D9B05C"/>
<stop offset="0.46" stop-color="#F3EEB0"/>
<stop offset="0.58" stop-color="#D9B05C"/>
<stop offset="0.69" stop-color="#865A27"/>
<stop offset="1" stop-color="#D9B05C"/>
</linearGradient>
<linearGradient id="paint1_linear_1_2" x1="292.525" y1="242.959" x2="494.603" y2="242.959" gradientUnits="userSpaceOnUse">
<stop stop-color="#E9C164"/>
<stop offset="0.23" stop-color="#9F6D33"/>
<stop offset="0.33" stop-color="#D9B05C"/>
<stop offset="0.46" stop-color="#F3EEB0"/>
<stop offset="0.58" stop-color="#D9B05C"/>
<stop offset="0.69" stop-color="#865A27"/>
<stop offset="1" stop-color="#D9B05C"/>
</linearGradient>
<linearGradient id="paint2_linear_1_2" x1="507.117" y1="273.324" x2="652.014" y2="273.324" gradientUnits="userSpaceOnUse">
<stop stop-color="#E9C164"/>
<stop offset="0.23" stop-color="#9F6D33"/>
<stop offset="0.33" stop-color="#D9B05C"/>
<stop offset="0.46" stop-color="#F3EEB0"/>
<stop offset="0.58" stop-color="#D9B05C"/>
<stop offset="0.69" stop-color="#865A27"/>
<stop offset="1" stop-color="#D9B05C"/>
</linearGradient>
<linearGradient id="paint3_linear_1_2" x1="324.724" y1="370.776" x2="575.385" y2="370.776" gradientUnits="userSpaceOnUse">
<stop stop-color="#E9C164"/>
<stop offset="0.23" stop-color="#9F6D33"/>
<stop offset="0.33" stop-color="#D9B05C"/>
<stop offset="0.46" stop-color="#F3EEB0"/>
<stop offset="0.58" stop-color="#D9B05C"/>
<stop offset="0.69" stop-color="#865A27"/>
<stop offset="1" stop-color="#D9B05C"/>
</linearGradient>
<linearGradient id="paint4_linear_1_2" x1="501.971" y1="294.365" x2="979.898" y2="294.365" gradientUnits="userSpaceOnUse">
<stop stop-color="#E9C164"/>
<stop offset="0.23" stop-color="#9F6D33"/>
<stop offset="0.33" stop-color="#D9B05C"/>
<stop offset="0.46" stop-color="#F3EEB0"/>
<stop offset="0.58" stop-color="#D9B05C"/>
<stop offset="0.69" stop-color="#865A27"/>
<stop offset="1" stop-color="#D9B05C"/>
</linearGradient>
<linearGradient id="paint5_linear_1_2" x1="91.6834" y1="563.32" x2="995.718" y2="563.32" gradientUnits="userSpaceOnUse">
<stop stop-color="#E9C164"/>
<stop offset="0.23" stop-color="#9F6D33"/>
<stop offset="0.33" stop-color="#D9B05C"/>
<stop offset="0.46" stop-color="#F3EEB0"/>
<stop offset="0.58" stop-color="#D9B05C"/>
<stop offset="0.69" stop-color="#865A27"/>
<stop offset="1" stop-color="#D9B05C"/>
</linearGradient>
<linearGradient id="paint6_linear_1_2" x1="234.004" y1="222.224" x2="302.51" y2="222.224" gradientUnits="userSpaceOnUse">
<stop stop-color="#E9C164"/>
<stop offset="0.23" stop-color="#9F6D33"/>
<stop offset="0.33" stop-color="#D9B05C"/>
<stop offset="0.46" stop-color="#F3EEB0"/>
<stop offset="0.58" stop-color="#D9B05C"/>
<stop offset="0.69" stop-color="#865A27"/>
<stop offset="1" stop-color="#D9B05C"/>
</linearGradient>
<linearGradient id="paint7_linear_1_2" x1="0.762121" y1="364.678" x2="1132.56" y2="364.678" gradientUnits="userSpaceOnUse">
<stop stop-color="#E9C164"/>
<stop offset="0.23" stop-color="#9F6D33"/>
<stop offset="0.33" stop-color="#D9B05C"/>
<stop offset="0.46" stop-color="#F3EEB0"/>
<stop offset="0.58" stop-color="#D9B05C"/>
<stop offset="0.69" stop-color="#865A27"/>
<stop offset="1" stop-color="#D9B05C"/>
</linearGradient>
</defs>
</svg>
