<svg width="149" height="24" viewBox="0 0 149 24" fill="none" xmlns="http://www.w3.org/2000/svg">
<path d="M11.53 11.74C14.66 15.42 18.26 19.72 21.36 23.51V23.92H13.54L7.16 15.97V23.92H0.839996V0.0400085H7.16V7.89001C9.07 5.37001 11.15 2.57001 13.03 0.0400085H20.59V0.450005L11.53 11.74ZM37.63 9.15H29.59V0.0700073H23.27V23.95H29.59V14.91H37.63V23.95H43.89V0.0700073H37.63V9.15ZM49.76 19.03H48.46V6.04C50.41 6.04 52.34 6.04 54.29 6.04C57.19 6.04 58.58 7.97001 58.6 10.16C58.62 12.18 57.43 14.02 54.68 14.15L59.12 19.03H57.43L53.12 14.24H49.76V19.03ZM49.76 13.02H54.22C56.3 13.02 57.3 11.79 57.3 10.16C57.3 8.53001 56.3 7.26 54.29 7.26H49.76V13.02ZM64.94 19.2C62.21 19.2 60.19 17.36 60.19 14.43C60.19 11.68 62.16 9.7 64.89 9.7C67.62 9.7 69.81 11.35 69.46 14.97H61.48C61.65 16.88 63.13 18.01 64.95 18.01C66.06 18.01 67.4 17.56 68.05 16.75L68.89 17.49C67.97 18.62 66.39 19.2 64.94 19.2ZM61.47 13.91H68.28C68.24 11.91 66.74 10.81 64.9 10.81C63.07 10.81 61.71 11.92 61.47 13.91ZM75.74 19.22C73.14 19.22 71.06 17.36 71.06 14.45C71.06 11.55 73.16 9.74001 75.76 9.74001C77.17 9.74001 78.67 10.39 79.36 11.69V9.87H80.53C80.53 12.93 80.53 15.98 80.53 19.04H79.38V17.22C78.58 18.57 77.12 19.22 75.74 19.22ZM75.8 10.86C73.87 10.86 72.31 12.29 72.31 14.44C72.31 16.61 73.87 18.04 75.8 18.04C80.53 18.05 80.53 10.86 75.8 10.86ZM84.8 6.04H83.56V19.03H84.8V6.04ZM102.34 17.8H94.32V13.12H101.82V11.91H94.32V7.25001H102.17V6.02001H93.02C93.02 10.35 93.02 14.69 93.02 19.01H102.34V17.8ZM108.15 18.06C106.98 18.04 105.63 17.63 104.85 16.57L104.07 17.42C105 18.68 106.56 19.2 108.14 19.2C110 19.2 111.87 18.46 111.91 16.53C111.91 14.3 109.78 14.02 108.12 13.78C106.97 13.61 105.63 13.35 105.61 12.28C105.57 11.26 106.76 10.78 108.1 10.79C109.08 10.79 109.96 10.94 110.81 11.72L111.53 10.9C110.58 10.03 109.45 9.66001 108.08 9.66001C106.28 9.64001 104.39 10.44 104.39 12.31C104.41 14.2 106.25 14.61 108.01 14.87C109.48 15.07 110.66 15.3 110.66 16.5C110.66 17.77 109.19 18.06 108.15 18.06ZM119.7 18.71L119.31 17.67C118.86 17.87 118.4 18.02 117.97 18.02C116.73 18.02 116.41 17.26 116.41 16.11V10.93H119.38V9.87H116.41V7.14001L115.17 7.27001V9.87H113.3V10.93H115.17V16.11C115.17 18.02 115.97 19.17 117.94 19.15C118.53 19.16 119.11 18.99 119.7 18.71ZM129.02 17.21C128.22 18.57 126.76 19.21 125.38 19.21C122.78 19.21 120.7 17.35 120.7 14.44C120.7 11.54 122.8 9.73 125.4 9.73C126.81 9.73 128.31 10.38 129 11.68V9.86001H130.17C130.17 12.92 130.17 15.97 130.17 19.03H129.02V17.21ZM125.44 10.86C123.51 10.86 121.95 12.29 121.95 14.44C121.95 16.61 123.51 18.04 125.44 18.04C130.17 18.05 130.17 10.86 125.44 10.86ZM138.28 17.67C137.83 17.87 137.37 18.02 136.94 18.02C135.7 18.02 135.38 17.26 135.38 16.11V10.93H138.35V9.87H135.38V7.14001L134.14 7.27001V9.87H132.27V10.93H134.14V16.11C134.14 18.02 134.94 19.17 136.91 19.15C137.5 19.15 138.08 18.98 138.67 18.7L138.28 17.67ZM148.94 14.96H140.96C141.13 16.87 142.61 18 144.43 18C145.54 18 146.88 17.55 147.53 16.74L148.37 17.48C147.46 18.61 145.88 19.19 144.43 19.19C141.7 19.19 139.68 17.35 139.68 14.42C139.68 11.67 141.65 9.69001 144.38 9.69001C147.11 9.69001 149.29 11.34 148.94 14.96ZM147.77 13.91C147.73 11.91 146.23 10.81 144.39 10.81C142.55 10.81 141.2 11.92 140.96 13.91H147.77Z" fill="url(#paint0_linear_1_43)"/>
<defs>
<linearGradient id="paint0_linear_1_43" x1="0.837696" y1="11.9945" x2="148.973" y2="11.9945" gradientUnits="userSpaceOnUse">
<stop stop-color="#E9C265"/>
<stop offset="0.25" stop-color="#9C7038"/>
<stop offset="0.35" stop-color="#D9B05D"/>
<stop offset="0.5" stop-color="#F2EEB1"/>
<stop offset="0.65" stop-color="#D9B05D"/>
<stop offset="0.8142" stop-color="#9C7038"/>
<stop offset="1" stop-color="#E9C265"/>
</linearGradient>
</defs>
</svg>
