<svg width="149" height="30" viewBox="0 0 149 30" fill="none" xmlns="http://www.w3.org/2000/svg">
<path d="M105.98 13.04V15.86H107.67C108.88 15.86 109.42 15.43 109.42 14.46C109.42 13.48 108.89 13.04 107.66 13.04H105.98V13.04ZM105.05 12.23H107.68C109.55 12.23 110.38 12.9201 110.38 14.4301C110.38 15.9001 109.51 16.58 107.7 16.58H105.98V18.67H105.05V12.23V12.23Z" fill="#21695B"/>
<path d="M114.06 14.6801C113.3 14.6801 112.62 14.99 112.04 15.61V18.67H111.17V14.0699H112.04V14.9399C112.62 14.3199 113.32 13.97 114.06 13.97V14.6801Z" fill="#21695B"/>
<path d="M115.41 15.21C115.09 15.53 114.92 15.92 114.92 16.37C114.92 17.29 115.68 18.02 116.6 18.02C117.06 18.02 117.46 17.86 117.78 17.54C118.1 17.22 118.27 16.82 118.27 16.37C118.27 15.45 117.51 14.72 116.6 14.72C116.14 14.72 115.74 14.89 115.41 15.21ZM116.6 13.98C117.3 13.98 117.9 14.2101 118.39 14.6801C118.89 15.1501 119.14 15.71 119.14 16.37C119.14 17.03 118.89 17.5901 118.39 18.0601C117.9 18.5301 117.3 18.76 116.6 18.76C115.91 18.76 115.31 18.5301 114.81 18.0601C114.32 17.5901 114.07 17.03 114.07 16.37C114.07 15.71 114.32 15.1501 114.81 14.6801C115.31 14.2101 115.91 13.98 116.6 13.98Z" fill="#21695B"/>
<path d="M120.81 15.41V17.3199C121.11 17.7499 121.61 18.01 122.15 18.01C123.06 18.01 123.82 17.27 123.82 16.36C123.82 15.45 123.06 14.71 122.15 14.71C121.61 14.72 121.11 14.98 120.81 15.41ZM124.05 14.6801C124.46 15.1401 124.68 15.7 124.68 16.37C124.68 17.04 124.47 17.5999 124.05 18.0699C123.64 18.5299 123.1 18.76 122.46 18.76C121.81 18.76 121.25 18.51 120.81 18.02V20.46H119.94V14.0601H120.81V14.7C121.26 14.21 121.8 13.96 122.46 13.96C123.1 13.98 123.64 14.2101 124.05 14.6801Z" fill="#21695B"/>
<path d="M126.54 15.0699C126.24 15.3699 126.09 15.75 126.09 16.18H129.16C129.16 15.73 129.02 15.35 128.75 15.05C128.47 14.75 128.1 14.6 127.63 14.6C127.2 14.6 126.84 14.7599 126.54 15.0699ZM129.33 14.67C129.76 15.12 129.97 15.69 129.97 16.37V16.62H126.07C126.09 17.05 126.25 17.4099 126.58 17.6999C126.9 17.9899 127.28 18.13 127.71 18.13C128.27 18.13 128.75 17.94 129.14 17.56L129.61 17.9699C129.07 18.4899 128.41 18.76 127.65 18.76C126.98 18.76 126.41 18.53 125.94 18.06C125.47 17.59 125.24 17.03 125.24 16.37C125.21 15.07 126.33 13.95 127.61 13.98C128.32 13.98 128.89 14.21 129.33 14.67Z" fill="#21695B"/>
<path d="M133.56 14.6801C132.8 14.6801 132.12 14.99 131.54 15.61V18.67H130.67V14.0699H131.54V14.9399C132.12 14.3199 132.82 13.97 133.56 13.97V14.6801Z" fill="#21695B"/>
<path d="M135.09 14.0699H136.49V14.74H135.09V17.02C135.09 17.66 135.53 18.05 136.08 18.05C136.3 18.05 136.51 17.99 136.72 17.88L136.85 18.48C136.5 18.66 136.14 18.76 135.76 18.77C134.87 18.77 134.2 18.17 134.2 17.17V14.75H133.42V14.08H134.2V12.76H135.07V14.0699H135.09Z" fill="#21695B"/>
<path d="M138.55 18.6701H137.68V14.07H138.55V18.6701ZM138.46 13.12C138.17 13.38 137.62 13.18 137.62 12.82C137.62 12.58 137.84 12.4001 138.11 12.4001C138.55 12.3901 138.77 12.85 138.46 13.12Z" fill="#21695B"/>
<path d="M140.63 15.0699C140.33 15.3699 140.18 15.75 140.18 16.18H143.25C143.25 15.73 143.11 15.35 142.84 15.05C142.56 14.75 142.19 14.6 141.72 14.6C141.3 14.6 140.94 14.7599 140.63 15.0699ZM143.43 14.67C143.86 15.12 144.07 15.69 144.07 16.37V16.62H140.17C140.19 17.05 140.35 17.4099 140.68 17.6999C141 17.9899 141.38 18.13 141.81 18.13C142.37 18.13 142.85 17.94 143.24 17.56L143.71 17.9699C143.17 18.4899 142.51 18.76 141.75 18.76C141.08 18.76 140.51 18.53 140.04 18.06C139.57 17.59 139.34 17.03 139.34 16.37C139.31 15.07 140.43 13.95 141.71 13.98C142.42 13.98 142.99 14.21 143.43 14.67Z" fill="#21695B"/>
<path d="M148.22 14.47L147.93 15C147.44 14.71 146.92 14.5601 146.36 14.5601C145.81 14.5601 145.41 14.8 145.41 15.25C145.41 15.41 145.47 15.54 145.61 15.63C145.75 15.72 146.02 15.8201 146.43 15.9301C146.44 15.9401 146.47 15.94 146.49 15.95C146.86 16.05 146.96 16.07 147.25 16.17C147.54 16.25 147.65 16.3201 147.84 16.4301C148.05 16.5401 148.12 16.6599 148.22 16.8199C148.33 16.9799 148.36 17.17 148.36 17.42C148.36 18.29 147.6 18.76 146.51 18.76C145.68 18.76 144.97 18.56 144.38 18.16L144.69 17.64C145.21 17.99 145.82 18.17 146.49 18.17C147.09 18.17 147.54 17.94 147.54 17.49C147.54 17.25 147.47 17.09 147.32 16.99C147.18 16.9 146.9 16.7999 146.46 16.6899C146.36 16.6599 146.28 16.63 146.22 16.63C145.62 16.47 145.2 16.3 144.95 16.12C144.7 15.94 144.58 15.68 144.58 15.33C144.58 14.39 145.37 13.98 146.35 13.98C147.07 13.98 147.7 14.14 148.22 14.47Z" fill="#21695B"/>
<path d="M110.64 22.74L110.03 23.38C109.52 22.93 108.93 22.71 108.24 22.71C107.55 22.71 106.96 22.95 106.47 23.42C105.98 23.89 105.74 24.47 105.74 25.17C105.74 25.84 105.98 26.42 106.45 26.9C106.92 27.37 107.5 27.61 108.18 27.61C108.88 27.61 109.49 27.41 110.01 26.99V25.66H108.23V24.99H110.9V27.49C110.13 28.14 109.21 28.48 108.17 28.48C106.34 28.53 104.72 26.96 104.76 25.16C104.76 24.52 104.92 23.9399 105.24 23.4399C105.89 22.4099 107 21.85 108.22 21.85C109.17 21.86 109.97 22.15 110.64 22.74Z" fill="#21695B"/>
<path d="M114.91 24.4C114.15 24.4 113.47 24.71 112.89 25.33V28.39H112.02V23.79H112.89V24.66C113.47 24.04 114.17 23.6899 114.91 23.6899V24.4Z" fill="#21695B"/>
<path d="M116.26 24.92C115.94 25.24 115.77 25.63 115.77 26.08C115.77 27 116.53 27.73 117.45 27.73C117.91 27.73 118.31 27.57 118.63 27.25C118.95 26.93 119.12 26.53 119.12 26.08C119.12 25.16 118.36 24.4301 117.45 24.4301C116.99 24.4301 116.59 24.6 116.26 24.92ZM117.45 23.6899C118.15 23.6899 118.75 23.92 119.24 24.39C119.74 24.86 119.99 25.42 119.99 26.08C119.99 26.74 119.74 27.3 119.24 27.77C118.75 28.24 118.15 28.47 117.45 28.47C116.76 28.47 116.16 28.24 115.66 27.77C115.17 27.3 114.92 26.74 114.92 26.08C114.92 25.42 115.17 24.86 115.66 24.39C116.16 23.92 116.76 23.6899 117.45 23.6899Z" fill="#21695B"/>
<path d="M121.54 23.78V26.54C121.54 27.32 121.98 27.76 122.68 27.76C123.33 27.76 123.9 27.54 124.38 27.11V23.78H125.25V28.38H124.38V27.73C123.78 28.23 123.1 28.48 122.35 28.48C121.35 28.48 120.66 27.88 120.66 26.79V23.79H121.54V23.78Z" fill="#21695B"/>
<path d="M127.06 25.12V27.03C127.36 27.46 127.86 27.72 128.4 27.72C129.31 27.72 130.07 26.9799 130.07 26.0699C130.07 25.1599 129.32 24.42 128.4 24.42C127.86 24.43 127.37 24.69 127.06 25.12ZM130.3 24.39C130.71 24.85 130.93 25.41 130.93 26.08C130.93 26.75 130.72 27.31 130.3 27.78C129.89 28.24 129.35 28.47 128.71 28.47C128.06 28.47 127.5 28.22 127.06 27.73V29.8H126.19V23.77H127.06V24.41C127.51 23.92 128.05 23.67 128.71 23.67C129.35 23.69 129.89 23.92 130.3 24.39Z" fill="#21695B"/>
<path d="M28.12 16.0501L28.22 28.6401H22.79L22.7 17.73C22.68 15.51 21.43 14.2401 19.43 14.2601C17.57 14.2801 15.94 14.91 14.52 16.12L14.62 28.6401H9.08002L9.03998 9.64006H14.47L14.49 12.47C16.63 10.74 18.99 9.66006 21.58 9.64006C25.23 9.61006 28.09 11.8901 28.12 16.0501Z" fill="#243C64"/>
<path d="M79.38 16.0501L79.48 28.6401H74.05L73.96 17.73C73.94 15.51 72.69 14.2401 70.69 14.2601C68.83 14.2801 67.2 14.91 65.78 16.12L65.88 28.6401H60.45L60.3 9.64006H65.73L65.75 12.47C67.89 10.74 70.25 9.66006 72.84 9.64006C76.49 9.61006 79.35 11.8901 79.38 16.0501Z" fill="#243C64"/>
<path d="M31 0.73999L31.2 28.64H36.64L36.43 0.73999H31Z" fill="#243C64"/>
<path d="M52.03 19.58L48.24 19.61C46.02 19.63 44.75 20.59 44.76 22.37C44.77 24.16 46.1 25.38 47.88 25.37C49.52 25.36 50.94 24.9101 52.06 24.0601L52.03 19.58ZM57.44 16.4L57.54 28.64H52.11L52.09 25.99C50.28 27.72 48.1 28.61 45.51 28.63C41.97 28.66 39.44 26.35 39.41 22.96C39.38 19.57 41.92 17.5801 46.11 17.5501L52.02 17.5V16.95C52 14.87 50.54 13.83 48.17 13.85C46.27 13.9 44.42 14.5 42.57 15.65L40.97 12.2C43.73 10.54 46.6 9.71003 49.59 9.65003C54.25 9.60003 57.4 11.73 57.44 16.4Z" fill="#243C64"/>
<path d="M87.61 19.1899C87.62 20.5399 88.1 21.66 89.06 22.64C90.02 23.58 91.15 24.04 92.5 24.03C94.14 24.02 95.66 23.13 96.53 21.77L96.49 16.45C95.6 15.11 94.07 14.25 92.43 14.26C89.8 14.28 87.59 16.5299 87.61 19.1899ZM101.81 0.73999L102.02 28.62H96.59L96.57 25.89C94.94 27.69 92.95 28.62 90.58 28.64C85.55 28.68 82.31 24.48 82.26 19.23C82.22 13.98 85.39 9.73005 90.42 9.68005C92.75 9.66005 94.77 10.56 96.46 12.33L96.38 0.73999H101.81V0.73999Z" fill="#243C64"/>
<path d="M6.27002 0.72998L0.72998 5.18994L6.27002 9.64001V5.80005V0.72998Z" fill="#243C64"/>
<path d="M0.72998 14.3199V28.64H6.27002V9.66003V9.64001L0.72998 14.3199Z" fill="#243C64"/>
<path d="M108.19 2.93005C108.19 3.76005 107.52 4.43005 106.69 4.43005C105.86 4.43005 105.19 3.76005 105.19 2.93005C105.19 2.10005 105.86 1.43005 106.69 1.43005C107.52 1.42005 108.19 2.10005 108.19 2.93005ZM106.69 1.02002C105.64 1.02002 104.79 1.87004 104.79 2.92004C104.79 3.97004 105.64 4.81995 106.69 4.81995C107.74 4.81995 108.59 3.97004 108.59 2.92004C108.59 1.87004 107.74 1.02002 106.69 1.02002Z" fill="#243C64"/>
<path d="M106.59 2.91003H106.21V2.25H106.68C107 2.25 107.13 2.37006 107.13 2.56006C107.13 2.78006 106.93 2.91003 106.59 2.91003ZM106.93 3.09998C107.23 3.02998 107.5 2.88002 107.5 2.52002C107.5 2.17002 107.25 1.95996 106.7 1.95996H105.86V3.84998H106.21V3.18994H106.44C106.63 3.18994 106.73 3.24001 106.85 3.39001L107.25 3.84998H107.69V3.83997L107.23 3.32996C107.12 3.19996 107.05 3.14998 106.93 3.09998Z" fill="#243C64"/>
</svg>
