<svg width="155" height="32" viewBox="0 0 155 32" fill="none" xmlns="http://www.w3.org/2000/svg">
<path d="M110.5 13.59V16.55H112.27C113.54 16.55 114.11 16.1 114.11 15.08C114.11 14.05 113.55 13.59 112.27 13.59H110.5V13.59ZM109.52 12.74H112.28C114.24 12.74 115.11 13.46 115.11 15.05C115.11 16.6 114.2 17.31 112.3 17.31H110.49V19.5H109.51V12.74H109.52Z" fill="white"/>
<path d="M118.97 15.32C118.17 15.32 117.46 15.65 116.85 16.3V19.51H115.93V14.68H116.85V15.6C117.46 14.95 118.19 14.59 118.97 14.59V15.32Z" fill="white"/>
<path d="M120.39 15.87C120.05 16.21 119.88 16.61 119.88 17.09C119.88 18.06 120.68 18.82 121.64 18.82C122.12 18.82 122.54 18.66 122.88 18.32C123.22 17.98 123.39 17.57 123.39 17.09C123.39 16.12 122.6 15.36 121.64 15.36C121.15 15.36 120.74 15.53 120.39 15.87ZM121.63 14.57C122.36 14.57 122.99 14.81 123.5 15.3C124.02 15.79 124.28 16.38 124.28 17.08C124.28 17.78 124.02 18.36 123.5 18.86C122.99 19.35 122.36 19.59 121.63 19.59C120.91 19.59 120.28 19.35 119.76 18.86C119.25 18.37 118.99 17.78 118.99 17.08C118.99 16.38 119.25 15.8 119.76 15.3C120.28 14.82 120.91 14.57 121.63 14.57Z" fill="white"/>
<path d="M126.05 16.08V18.09C126.37 18.54 126.89 18.81 127.46 18.81C128.42 18.81 129.21 18.04 129.21 17.08C129.21 16.12 128.42 15.35 127.46 15.35C126.89 15.36 126.37 15.63 126.05 16.08ZM129.45 15.31C129.88 15.79 130.11 16.38 130.11 17.09C130.11 17.79 129.89 18.38 129.45 18.88C129.02 19.36 128.46 19.6 127.78 19.6C127.09 19.6 126.52 19.34 126.05 18.83V21.39H125.13V14.68H126.05V15.36C126.52 14.85 127.09 14.59 127.78 14.59C128.45 14.57 129.01 14.82 129.45 15.31Z" fill="white"/>
<path d="M132.06 15.72C131.74 16.04 131.59 16.43 131.59 16.89H134.81C134.81 16.42 134.66 16.02 134.38 15.7C134.09 15.38 133.69 15.23 133.2 15.23C132.75 15.23 132.38 15.4 132.06 15.72ZM134.98 15.3C135.43 15.77 135.66 16.37 135.66 17.09V17.35H131.57C131.59 17.8 131.76 18.18 132.1 18.48C132.44 18.78 132.83 18.93 133.29 18.93C133.88 18.93 134.38 18.73 134.79 18.33L135.28 18.76C134.71 19.31 134.02 19.59 133.22 19.59C132.52 19.59 131.92 19.35 131.42 18.86C130.93 18.37 130.69 17.78 130.69 17.08C130.66 15.72 131.83 14.54 133.17 14.57C133.93 14.57 134.53 14.82 134.98 15.3Z" fill="white"/>
<path d="M139.43 15.32C138.63 15.32 137.92 15.65 137.31 16.3V19.51H136.39V14.68H137.31V15.6C137.92 14.95 138.65 14.59 139.43 14.59V15.32Z" fill="white"/>
<path d="M141.03 14.67H142.5V15.37H141.03V17.77C141.03 18.45 141.49 18.85 142.07 18.85C142.3 18.85 142.52 18.79 142.75 18.67L142.89 19.3C142.52 19.49 142.15 19.59 141.75 19.6C140.81 19.6 140.12 18.97 140.12 17.92V15.38H139.3V14.68H140.12V13.3H141.04V14.67H141.03Z" fill="white"/>
<path d="M144.66 19.5H143.74V14.67H144.66V19.5ZM144.57 13.68C144.26 13.95 143.69 13.75 143.69 13.36C143.69 13.11 143.92 12.92 144.2 12.92C144.66 12.91 144.88 13.4 144.57 13.68Z" fill="white"/>
<path d="M146.84 15.72C146.52 16.04 146.37 16.43 146.37 16.89H149.59C149.59 16.42 149.44 16.02 149.16 15.7C148.87 15.38 148.47 15.23 147.98 15.23C147.54 15.23 147.16 15.4 146.84 15.72ZM149.77 15.3C150.22 15.77 150.45 16.37 150.45 17.09V17.35H146.36C146.38 17.8 146.55 18.18 146.89 18.48C147.23 18.78 147.62 18.93 148.08 18.93C148.67 18.93 149.17 18.73 149.58 18.33L150.07 18.76C149.5 19.31 148.81 19.59 148.01 19.59C147.31 19.59 146.71 19.35 146.21 18.86C145.72 18.37 145.48 17.78 145.48 17.08C145.45 15.72 146.62 14.54 147.96 14.57C148.72 14.57 149.32 14.82 149.77 15.3Z" fill="white"/>
<path d="M154.8 15.1L154.49 15.66C153.98 15.35 153.43 15.2 152.84 15.2C152.26 15.2 151.85 15.45 151.85 15.92C151.85 16.08 151.92 16.22 152.06 16.32C152.21 16.42 152.49 16.52 152.92 16.64C152.93 16.65 152.96 16.65 152.99 16.66C153.38 16.77 153.48 16.79 153.79 16.89C154.1 16.98 154.21 17.04 154.41 17.16C154.63 17.28 154.7 17.4 154.81 17.57C154.93 17.73 154.96 17.94 154.96 18.2C154.96 19.12 154.17 19.61 153.02 19.61C152.15 19.61 151.41 19.4 150.79 18.98L151.12 18.44C151.67 18.81 152.31 18.99 153.01 18.99C153.64 18.99 154.11 18.75 154.11 18.28C154.11 18.03 154.03 17.86 153.88 17.76C153.73 17.66 153.44 17.56 152.98 17.44C152.87 17.41 152.79 17.38 152.73 17.37C152.1 17.21 151.66 17.02 151.4 16.84C151.14 16.66 151.01 16.38 151.01 16.01C151.01 15.02 151.84 14.59 152.86 14.59C153.6 14.57 154.25 14.75 154.8 15.1Z" fill="white"/>
<path d="M115.38 23.77L114.74 24.44C114.21 23.97 113.58 23.73 112.87 23.73C112.15 23.73 111.53 23.98 111.02 24.47C110.51 24.96 110.26 25.57 110.26 26.31C110.26 27.02 110.51 27.62 111 28.13C111.49 28.62 112.1 28.87 112.82 28.87C113.55 28.87 114.19 28.66 114.74 28.22V26.83H112.88V26.13H115.68V28.76C114.87 29.45 113.91 29.79 112.82 29.79C110.9 29.84 109.2 28.2 109.25 26.31C109.25 25.64 109.41 25.04 109.75 24.5C110.44 23.42 111.59 22.83 112.88 22.83C113.84 22.84 114.68 23.15 115.38 23.77Z" fill="white"/>
<path d="M119.86 25.51C119.06 25.51 118.35 25.84 117.74 26.49V29.7H116.82V24.87H117.74V25.79C118.35 25.14 119.08 24.78 119.86 24.78V25.51Z" fill="white"/>
<path d="M121.28 26.06C120.94 26.4 120.77 26.8 120.77 27.28C120.77 28.25 121.57 29.01 122.53 29.01C123.01 29.01 123.43 28.85 123.77 28.51C124.11 28.17 124.28 27.76 124.28 27.28C124.28 26.31 123.49 25.55 122.53 25.55C122.04 25.54 121.62 25.72 121.28 26.06ZM122.52 24.76C123.25 24.76 123.88 25 124.39 25.49C124.91 25.98 125.17 26.57 125.17 27.27C125.17 27.97 124.91 28.55 124.39 29.05C123.88 29.54 123.25 29.78 122.52 29.78C121.8 29.78 121.17 29.54 120.65 29.05C120.14 28.56 119.88 27.97 119.88 27.27C119.88 26.57 120.14 25.99 120.65 25.49C121.17 25 121.8 24.76 122.52 24.76Z" fill="white"/>
<path d="M126.81 24.86V27.76C126.81 28.58 127.27 29.04 128.01 29.04C128.7 29.04 129.29 28.81 129.8 28.35V24.85H130.71V29.68H129.8V29C129.17 29.52 128.46 29.78 127.67 29.78C126.62 29.78 125.9 29.15 125.9 28V24.85H126.81V24.86Z" fill="white"/>
<path d="M132.61 26.27V28.28C132.93 28.73 133.45 29 134.02 29C134.98 29 135.77 28.23 135.77 27.27C135.77 26.31 134.98 25.54 134.02 25.54C133.45 25.54 132.93 25.82 132.61 26.27ZM136.01 25.5C136.44 25.98 136.67 26.57 136.67 27.28C136.67 27.98 136.45 28.57 136.01 29.07C135.58 29.55 135.02 29.79 134.34 29.79C133.65 29.79 133.07 29.53 132.61 29.02V31.19H131.69V24.87H132.61V25.55C133.08 25.04 133.65 24.78 134.34 24.78C135.01 24.76 135.57 25 136.01 25.5Z" fill="white"/>
<path d="M28.82 16.75L28.93 29.96H23.23L23.14 18.52C23.12 16.19 21.81 14.86 19.71 14.88C17.76 14.9 16.04 15.56 14.56 16.83L14.67 29.96H8.86001L8.82001 10.03H14.52L14.53 13C16.77 11.18 19.25 10.05 21.96 10.03C25.78 10 28.79 12.39 28.82 16.75Z" fill="white"/>
<path d="M82.59 16.75L82.7 29.96H77L76.91 18.52C76.89 16.19 75.58 14.86 73.48 14.88C71.53 14.9 69.81 15.56 68.33 16.83L68.44 29.96H62.74L62.58 10.03H68.28L68.3 13C70.54 11.18 73.02 10.05 75.73 10.03C79.55 10 82.56 12.39 82.59 16.75Z" fill="white"/>
<path d="M31.83 0.690002L32.05 29.96H37.75L37.53 0.690002H31.83Z" fill="white"/>
<path d="M53.9 20.45L49.92 20.48C47.59 20.5 46.26 21.5 46.27 23.38C46.29 25.25 47.67 26.54 49.55 26.53C51.27 26.52 52.76 26.05 53.94 25.16L53.9 20.45ZM59.57 17.11L59.67 29.95H53.97L53.95 27.17C52.05 28.98 49.77 29.92 47.05 29.94C43.34 29.97 40.68 27.54 40.65 23.99C40.62 20.43 43.28 18.35 47.68 18.31L53.87 18.26V17.69C53.85 15.51 52.31 14.41 49.83 14.43C47.84 14.48 45.9 15.11 43.96 16.31L42.29 12.69C45.18 10.95 48.2 10.08 51.33 10.02C56.22 9.98998 59.53 12.22 59.57 17.11Z" fill="white"/>
<path d="M91.23 20.04C91.24 21.45 91.75 22.64 92.75 23.66C93.75 24.65 94.94 25.13 96.36 25.12C98.08 25.11 99.68 24.18 100.59 22.75L100.54 17.17C99.61 15.76 98 14.86 96.28 14.87C93.52 14.9 91.2 17.25 91.23 20.04ZM106.11 0.699982L106.33 29.95H100.63L100.61 27.08C98.9 28.97 96.81 29.94 94.32 29.96C89.04 30 85.64 25.59 85.6 20.09C85.56 14.58 88.88 10.12 94.16 10.08C96.61 10.06 98.72 11 100.49 12.86L100.41 0.699982H106.11V0.699982Z" fill="white"/>
<path d="M5.9 0.679993L0.0899963 5.35999L5.9 10.03V5.99999V0.679993Z" fill="white"/>
<path d="M0.0899963 14.93V29.96H5.9V10.05V10.03L0.0899963 14.93Z" fill="white"/>
<path d="M112.81 2.97999C112.81 3.84999 112.1 4.55999 111.23 4.55999C110.36 4.55999 109.65 3.84999 109.65 2.97999C109.65 2.10999 110.36 1.39999 111.23 1.39999C112.1 1.40999 112.81 2.10999 112.81 2.97999ZM111.24 0.98999C110.14 0.98999 109.24 1.88999 109.24 2.98999C109.24 4.08999 110.14 4.98999 111.24 4.98999C112.34 4.98999 113.24 4.08999 113.24 2.98999C113.24 1.88999 112.34 0.98999 111.24 0.98999Z" fill="white"/>
<path d="M111.13 2.96999H110.73V2.26999H111.23C111.56 2.26999 111.7 2.39999 111.7 2.58999C111.7 2.82999 111.49 2.96999 111.13 2.96999ZM111.49 3.15999C111.81 3.08999 112.09 2.92999 112.09 2.54999C112.09 2.18999 111.83 1.95999 111.26 1.95999H110.38V3.93999H110.75V3.24999H110.99C111.19 3.24999 111.29 3.30999 111.42 3.45999L111.84 3.93999H112.3V3.92999L111.81 3.39999C111.68 3.26999 111.61 3.21999 111.49 3.15999Z" fill="white"/>
</svg>
