<svg xmlns="http://www.w3.org/2000/svg" width="73.927" height="73.93" viewBox="0 0 73.927 73.93">
	<g id="aqua-park" transform="translate(-831.127 -3903.479)">
		<path id="Path_595" data-name="Path 595" d="M877.648,478.448a36.965,36.965,0,1,1,36.963-36.966,37.006,37.006,0,0,1-36.963,36.966" transform="translate(-9.557 3498.961)" fill="#108CB1" />
		<path id="Path_596" data-name="Path 596" d="M860.757,440.089v-6.338a2.113,2.113,0,1,0-4.225,0v6.338a.7.7,0,1,1-1.408,0v-6.338a3.522,3.522,0,1,1,7.043,0v6.338a.705.705,0,0,1-1.41,0m-12.64-20.906a.7.7,0,0,1,.247-.786l7.325-5.494a4.924,4.924,0,0,1,5.915,0l7.325,5.494a.7.7,0,0,1-.423,1.266H867.1v3.523h.808a4.93,4.93,0,0,1,4.822,3.9l.955,4.456a1.92,1.92,0,0,0,1.866,1.508h5.635a.7.7,0,1,1,0,1.407h-3.52v5.635a.705.705,0,1,1-1.41,0v-5.635h-.705a3.332,3.332,0,0,1-3.243-2.622l-.955-4.453a3.539,3.539,0,0,0-3.444-2.782H867.1v15.493a.7.7,0,1,1-1.408,0V424.6H851.6v15.493a.705.705,0,0,1-1.41,0V419.663h-1.407a.706.706,0,0,1-.67-.48m17.573.48H851.6v3.523H865.69ZM850.9,418.255h15.493l-5.636-4.225a3.517,3.517,0,0,0-4.225,0Zm30.664,23.96a.705.705,0,0,0-.974.211,4.084,4.084,0,0,1-6.886,0,.708.708,0,0,0-.591-.325h-.038a.709.709,0,0,0-.594.325,4.083,4.083,0,0,1-6.886,0A.708.708,0,0,0,865,442.1h-.038a.705.705,0,0,0-.591.325,4.084,4.084,0,0,1-6.886,0,.709.709,0,0,0-.594-.325h-.038a.7.7,0,0,0-.591.325,4.083,4.083,0,0,1-6.886,0,.7.7,0,0,0-1.188.759,20.137,20.137,0,0,1,12.738,2.536,5.5,5.5,0,0,1,8.109,0,5.495,5.495,0,0,1,8.106,0,5.479,5.479,0,0,0,4.632-2.536.7.7,0,0,0-.214-.971" transform="translate(3.105 3511.623)" fill="#fff" />
	</g>
</svg>
