<svg width="38" height="36" viewBox="0 0 38 36" fill="none" xmlns="http://www.w3.org/2000/svg">
<path d="M4.54597 16.384C5.00464 16.1539 5.50792 16.0265 6.02083 16.0106C6.53373 15.9947 7.04391 16.0908 7.51594 16.292C7.63754 16.3963 7.79276 16.4532 7.95295 16.452H8.01497C8.17574 16.453 8.33149 16.3962 8.45393 16.292C8.92596 16.0908 9.43627 15.9947 9.94917 16.0106C10.4621 16.0265 10.9654 16.1539 11.424 16.384C11.5151 16.4292 11.6154 16.4524 11.717 16.452C11.8684 16.4518 12.0151 16.4003 12.1335 16.3059C12.2519 16.2116 12.3349 16.0799 12.3688 15.9324C12.4028 15.7849 12.3858 15.6303 12.3206 15.4936C12.2555 15.357 12.146 15.2465 12.01 15.18C9.32951 14.9849 6.63841 14.9849 3.95796 15.18C3.81204 15.2655 3.7039 15.4029 3.6551 15.5649C3.60631 15.7268 3.62049 15.9011 3.6949 16.053C3.76931 16.2048 3.89838 16.323 4.05623 16.3836C4.21408 16.4443 4.38902 16.443 4.54597 16.38" fill="#004274"/>
<path d="M3.34692 34.863C3.34692 34.951 3.36428 35.0381 3.39795 35.1194C3.43162 35.2007 3.481 35.2745 3.54321 35.3368C3.60543 35.399 3.67933 35.4483 3.76062 35.482C3.84191 35.5157 3.92898 35.533 4.01697 35.533C4.10495 35.533 4.19203 35.5157 4.27332 35.482C4.3546 35.4483 4.42851 35.399 4.49072 35.3368C4.55294 35.2745 4.60232 35.2007 4.63599 35.1194C4.66966 35.0381 4.68701 34.951 4.68701 34.863V29.363L3.34692 28.021V34.863Z" fill="#004274"/>
<path d="M24.351 30.8572C24.3236 30.9311 24.3102 31.0094 24.3111 31.0882V34.8602C24.3111 35.0382 24.3817 35.2088 24.5075 35.3347C24.6333 35.4605 24.804 35.5312 24.982 35.5312C25.1599 35.5312 25.3306 35.4605 25.4565 35.3347C25.5823 35.2088 25.653 35.0382 25.653 34.8602V31.0882C25.6526 31.0092 25.6377 30.9308 25.6091 30.8572H24.351Z" fill="#004274"/>
<path d="M28.8529 28.175C28.6282 27.9368 28.3183 27.7973 27.9909 27.787H8.05892C7.88036 27.7858 7.70959 27.7139 7.58394 27.5871L2.84383 22.846C2.53062 22.5151 2.10522 22.3129 1.65083 22.2791C1.55362 22.2746 1.45654 22.2906 1.36592 22.3261C1.2753 22.3616 1.19316 22.4157 1.12483 22.485C1.01253 22.56 0.920038 22.6608 0.855058 22.7792C0.790079 22.8975 0.754609 23.0298 0.751665 23.1647C0.74872 23.2997 0.778334 23.4334 0.838091 23.5544C0.897847 23.6755 0.985995 23.7803 1.09493 23.86L6.38594 29.1541C6.49844 29.2675 6.63243 29.3573 6.78011 29.4183C6.92779 29.4793 7.08617 29.5101 7.24593 29.5091H27.1759C27.355 29.5101 27.5266 29.582 27.6529 29.709L29.8249 31.8841C29.9372 31.998 30.071 32.0884 30.2187 32.1499C30.3664 32.2114 30.5249 32.2427 30.6849 32.2421C31.1129 32.2421 31.1979 32.2151 31.3739 32.0421C32.0599 31.3561 31.8739 31.166 31.5739 30.873L28.8529 28.175Z" fill="#004274"/>
<path d="M12.212 9.98903C12.458 10.1291 12.7305 10.2161 13.0121 10.2446C13.2937 10.273 13.5781 10.2421 13.847 10.154C14.4984 9.98139 15.1856 9.99944 15.827 10.206C19.146 4.97204 22.5981 1.83702 26.0861 0.888019C26.1861 0.858019 26.2919 0.83404 26.3929 0.80904C23.4114 0.0754939 20.2725 0.329566 17.4478 1.5331C14.623 2.73663 12.2653 4.82457 10.729 7.48302C10.729 7.48302 11.122 8.28302 11.25 8.65502C11.3081 8.93245 11.4238 9.19458 11.5897 9.4244C11.7556 9.65421 11.968 9.84659 12.213 9.98903" fill="#004274"/>
<path d="M16.986 10.8891C17.4581 11.3359 17.7975 11.9045 17.9669 12.5321C18.0239 12.81 18.1392 13.0726 18.3052 13.3027C18.4711 13.5328 18.684 13.725 18.9297 13.8668C19.1754 14.0086 19.4484 14.0966 19.7306 14.1251C20.0128 14.1536 20.2978 14.1219 20.5669 14.0321C21.2078 13.862 21.8838 13.8762 22.517 14.0731L29.4349 2.09211C28.4061 1.84986 27.3307 1.89204 26.324 2.21412C24.168 2.84012 20.8239 4.8551 16.9869 10.8891" fill="#004274"/>
<path d="M24.6849 16.4112C24.7423 16.6888 24.8579 16.9512 25.0239 17.181C25.19 17.4108 25.4029 17.6029 25.6484 17.7446C25.894 17.8863 26.1668 17.9744 26.4489 18.0031C26.7309 18.0318 27.0159 18.0005 27.285 17.9112C27.914 17.7451 28.5765 17.7555 29.2 17.9412C32.506 11.6032 32.5819 7.6952 32.0449 5.5202C31.8199 4.48644 31.3185 3.5332 30.594 2.76221L23.676 14.7462C24.1624 15.1951 24.512 15.7723 24.6849 16.4112" fill="#004274"/>
<path d="M33.225 4.75299C33.255 4.85299 33.2819 4.95301 33.3119 5.05301C34.2339 8.55301 33.2439 13.105 30.3689 18.599C30.8694 19.0499 31.2291 19.6357 31.4049 20.286C31.461 20.5644 31.5757 20.8276 31.7415 21.0582C31.9072 21.2888 32.1201 21.4814 32.3661 21.6234C32.6121 21.7653 32.8854 21.8531 33.168 21.8812C33.4505 21.9092 33.7359 21.8768 34.005 21.786C34.39 21.716 35.2789 21.656 35.2789 21.656C36.8134 18.9957 37.4427 15.9092 37.0725 12.8605C36.7023 9.81185 35.3525 6.96571 33.226 4.75" fill="#004274"/>
<path d="M15.373 26.4471H16.921L22.983 15.9471L21.823 15.2751L15.373 26.4471Z" fill="#004274"/>
</svg>
