<svg width="8" height="9" viewBox="0 0 8 9" fill="none" xmlns="http://www.w3.org/2000/svg">
<g clip-path="url(#clip0_2_85)">
<path d="M7.14716 8.44131C7.14716 8.44131 7.14716 5.98834 7.14526 5.74439C7.14716 5.52152 7.14005 0.171734 7.14005 0.171734H7.01737C7.01737 0.171734 6.02263 0.733758 6.02263 4.901C6.78692 5.11037 6.46576 5.94595 6.40797 6.05276C6.40797 6.26592 6.42337 8.44345 6.42337 8.44345H6.42526V8.44984C6.42526 8.54567 6.46332 8.63756 6.53108 8.70532C6.59884 8.77308 6.69074 8.81114 6.78657 8.81114C6.88239 8.81114 6.97429 8.77308 7.04205 8.70532C7.10981 8.63756 7.14787 8.54567 7.14787 8.44984L7.14597 8.44416L7.14716 8.44131Z" fill="#004274"/>
<path d="M5.38174 0.326613H5.16408L5.22897 2.59273H4.96845V0.326613H4.77897V2.6074H4.5625V0.326613H4.35313V2.6074H4.09876L4.16982 0.325426H3.97205L3.73237 2.25498C3.73237 2.25498 3.72716 2.32817 3.72716 2.35588C3.7269 2.49726 3.75852 2.63688 3.81969 2.76433C3.88087 2.89177 3.97004 3.00377 4.08053 3.09197C4.79105 3.89558 4.306 4.71387 4.306 4.90784C4.30718 5.12242 4.30718 8.43679 4.30718 8.43679L4.306 8.44437C4.30844 8.54027 4.34825 8.63143 4.41694 8.69841C4.48562 8.76538 4.57775 8.80285 4.6737 8.80285C4.76962 8.80285 4.86177 8.76538 4.93046 8.69841C4.99914 8.63143 5.03895 8.54027 5.04139 8.44437L5.04021 8.43916L5.04139 8.43658V4.914C5.04139 4.68853 4.63024 3.74708 5.31566 3.04745L5.31826 3.04484C5.49177 2.88187 5.59714 2.65924 5.61313 2.42171C5.61503 2.40442 5.61503 2.36014 5.61503 2.36014L5.38174 0.326613Z" fill="#004274"/>
<path d="M2.10148 0.133917H2.08088C1.28438 0.147417 0.836025 0.909099 0.836025 1.73828C0.836025 2.57386 1.33838 3.16999 1.77559 3.30144C2.01575 3.63799 1.85776 4.43259 1.6889 4.89183V8.47738C1.68887 8.52622 1.69847 8.57458 1.71714 8.61973C1.73582 8.66485 1.7632 8.70584 1.79773 8.74037C1.83227 8.77493 1.87328 8.80231 1.91841 8.821C1.96354 8.83966 2.0119 8.84927 2.06074 8.84923H2.12114C2.16998 8.84927 2.21834 8.83966 2.26347 8.821C2.3086 8.80231 2.34961 8.77493 2.38414 8.74037C2.41868 8.70584 2.44606 8.66485 2.46473 8.61973C2.48341 8.57458 2.49301 8.52622 2.49298 8.47738V4.89207C2.32411 4.43283 2.16614 3.63823 2.40558 3.30167C2.84374 3.16999 3.34584 2.57386 3.34584 1.73852C3.34584 0.909572 2.8975 0.147411 2.101 0.134148L2.10148 0.133917ZM1.68606 2.97886C1.61983 2.9255 1.55969 2.86498 1.50677 2.79838C1.42975 2.70647 1.36119 2.60777 1.3019 2.50352C1.2704 2.44502 1.24032 2.38509 1.21261 2.31855C1.18482 2.25039 1.16334 2.17983 1.14843 2.10775C1.12467 1.96785 1.12227 1.82515 1.14131 1.68452C1.15434 1.56592 1.1791 1.4489 1.21521 1.33518C1.23879 1.25326 1.27053 1.17391 1.30996 1.09834C1.32386 1.06861 1.3411 1.04056 1.36135 1.01473C1.36135 1.01473 1.35614 1.05191 1.35306 1.10947C1.34998 1.16702 1.34785 1.25323 1.34524 1.35484C1.33246 1.5918 1.33872 1.8294 1.36395 2.06536C1.3733 2.12618 1.38918 2.18581 1.41132 2.24323C1.43003 2.30291 1.45253 2.36165 1.47503 2.41849C1.51931 2.53359 1.56811 2.64017 1.6105 2.73136C1.6529 2.82254 1.68961 2.89715 1.7185 2.94902C1.7474 3.00088 1.7718 3.02362 1.77369 3.02007C1.742 3.01213 1.71268 2.99669 1.68819 2.97507" fill="#004274"/>
<path d="M7.14716 8.44131C7.14716 8.44131 7.14716 5.98834 7.14526 5.74439C7.14716 5.52152 7.14005 0.171734 7.14005 0.171734H7.01737C7.01737 0.171734 6.02263 0.733758 6.02263 4.901C6.78692 5.11037 6.46576 5.94595 6.40797 6.05276C6.40797 6.26592 6.42337 8.44345 6.42337 8.44345H6.42526V8.44984C6.42526 8.54567 6.46332 8.63756 6.53108 8.70532C6.59884 8.77308 6.69074 8.81114 6.78657 8.81114C6.88239 8.81114 6.97429 8.77308 7.04205 8.70532C7.10981 8.63756 7.14787 8.54567 7.14787 8.44984L7.14597 8.44416L7.14716 8.44131Z" fill="#004274"/>
<path d="M5.38174 0.32638H5.16408L5.22897 2.5925H4.96845V0.32638H4.77897V2.60718H4.5625V0.32638H4.35313V2.60718H4.09876L4.16982 0.325196H3.97205L3.73237 2.25475C3.73237 2.25475 3.72716 2.32794 3.72716 2.35565C3.7269 2.49703 3.75852 2.63664 3.81969 2.76409C3.88087 2.89156 3.97004 3.00354 4.08053 3.09174C4.79105 3.89534 4.306 4.71366 4.306 4.90763C4.30718 5.12221 4.30718 8.43658 4.30718 8.43658L4.306 8.44413C4.30844 8.54005 4.34825 8.63121 4.41694 8.69817C4.48562 8.76515 4.57775 8.80264 4.6737 8.80264C4.76962 8.80264 4.86177 8.76515 4.93046 8.69817C4.99914 8.63121 5.03895 8.54005 5.04139 8.44413L5.04021 8.43894L5.04139 8.43634V4.91379C5.04139 4.68831 4.63024 3.74687 5.31566 3.04723L5.31826 3.04463C5.49177 2.88166 5.59714 2.659 5.61313 2.4215C5.61503 2.40421 5.61503 2.35991 5.61503 2.35991L5.38174 0.32638Z" fill="#004274"/>
<path d="M2.10148 0.133686H2.08088C1.28438 0.147186 0.836025 0.908867 0.836025 1.73805C0.836025 2.57362 1.33838 3.16975 1.77559 3.3012C2.01575 3.63775 1.85776 4.43236 1.6889 4.89159V8.47715C1.68887 8.52601 1.69847 8.57437 1.71714 8.61949C1.73582 8.66461 1.7632 8.7056 1.79773 8.74016C1.83227 8.77469 1.87328 8.80207 1.91841 8.82076C1.96354 8.83942 2.0119 8.84904 2.06074 8.84901H2.12114C2.16998 8.84904 2.21834 8.83942 2.26347 8.82076C2.3086 8.80207 2.34961 8.77469 2.38414 8.74016C2.41868 8.7056 2.44606 8.66461 2.46473 8.61949C2.48341 8.57437 2.49301 8.52601 2.49298 8.47715V4.89183C2.32411 4.43259 2.16614 3.63801 2.40558 3.30146C2.84374 3.16978 3.34584 2.57362 3.34584 1.73829C3.34584 0.909343 2.8975 0.147181 2.101 0.133917L2.10148 0.133686ZM1.68606 2.97862C1.61983 2.92526 1.55969 2.86475 1.50677 2.79817C1.42975 2.70623 1.36119 2.60754 1.3019 2.50328C1.2704 2.44478 1.24032 2.38488 1.21261 2.31832C1.18482 2.25016 1.16334 2.1796 1.14843 2.10753C1.12467 1.96762 1.12227 1.82492 1.14131 1.68429C1.15434 1.56569 1.1791 1.44867 1.21521 1.33495C1.23879 1.25303 1.27053 1.17368 1.30996 1.0981C1.32386 1.06838 1.3411 1.04033 1.36135 1.0145C1.36135 1.0145 1.35614 1.05168 1.35306 1.10924C1.34998 1.16679 1.34785 1.253 1.34524 1.35461C1.33246 1.59157 1.33872 1.82917 1.36395 2.06513C1.3733 2.12595 1.38918 2.18558 1.41132 2.243C1.43003 2.30268 1.45253 2.36142 1.47503 2.41825C1.51931 2.53336 1.56811 2.63994 1.6105 2.73112C1.6529 2.8223 1.68961 2.89691 1.7185 2.94878C1.7474 3.00065 1.7718 3.02338 1.77369 3.01983C1.742 3.0119 1.71268 2.99648 1.68819 2.97485" fill="#004274"/>
</g>
<defs>
<clipPath id="clip0_2_85">
<rect width="6.63158" height="9" fill="white" transform="translate(0.68421)"/>
</clipPath>
</defs>
</svg>
