<svg width="6" height="8" viewBox="0 0 6 8" fill="none" xmlns="http://www.w3.org/2000/svg">
<g clip-path="url(#clip0_2_80)">
<path d="M2.79727 2.95309C2.74273 2.68673 2.692 2.43564 2.64073 2.18509C2.58091 1.89236 2.51764 1.59999 2.462 1.30599C2.45733 1.27157 2.44409 1.23887 2.42351 1.21089C2.40293 1.1829 2.37565 1.16052 2.34418 1.14581C1.90218 0.90254 1.46291 0.654917 1.02218 0.409462C0.98436 0.395415 0.952447 0.368911 0.931694 0.334311C0.910941 0.299713 0.902583 0.25908 0.907999 0.219098C0.912357 0.191402 0.923707 0.165262 0.940974 0.143171C0.958241 0.12108 0.980855 0.103754 1.00668 0.092834C1.03251 0.0819146 1.06069 0.0777575 1.08856 0.0807602C1.11644 0.083763 1.14309 0.0938219 1.166 0.10999C1.37382 0.223082 1.57945 0.339449 1.786 0.455449C2.06455 0.610904 2.34218 0.768906 2.62236 0.921269C2.65905 0.939664 2.6908 0.966615 2.71491 0.999839C2.73902 1.03306 2.7548 1.07159 2.76091 1.11219C2.87927 1.69837 3.00145 2.28418 3.11782 2.87091C3.132 2.94182 3.16054 2.95491 3.22509 2.95436C3.79291 2.95218 4.36055 2.95327 4.92836 2.95327C5.09655 2.95327 5.15254 3.00782 5.14291 3.17382C5.10654 3.82291 5.06618 4.47218 5.02818 5.12127C4.99704 5.64515 4.96636 6.16904 4.93618 6.69291C4.91927 6.98618 4.90454 7.27964 4.88382 7.57255C4.87436 7.6776 4.82667 7.77553 4.74978 7.84771C4.67289 7.91991 4.57216 7.96135 4.46673 7.96416C3.92491 7.96733 3.38291 7.96733 2.84073 7.96416C2.73394 7.96075 2.63226 7.91771 2.55546 7.84344C2.47867 7.76916 2.43226 7.66896 2.42527 7.56236C2.37824 6.77447 2.3317 5.986 2.28564 5.19691C2.246 4.52187 2.20636 3.84702 2.16673 3.17236C2.15727 3.01 2.21273 2.95418 2.37345 2.95418C2.51 2.95255 2.64655 2.95309 2.79727 2.95309ZM4.80491 3.292H3.21C3.21309 3.31527 3.21418 3.3322 3.218 3.34875C3.40987 4.28922 3.60176 5.22945 3.79364 6.16945C3.80162 6.19178 3.80473 6.21556 3.80274 6.23918C3.80078 6.26282 3.7938 6.28575 3.78224 6.30646C3.77069 6.32716 3.75484 6.34518 3.73576 6.35925C3.71669 6.37335 3.69482 6.38316 3.67164 6.38811C3.64844 6.39306 3.62445 6.393 3.60131 6.38791C3.57815 6.38284 3.55633 6.37284 3.53735 6.35864C3.51835 6.34444 3.50262 6.32635 3.4912 6.30556C3.47976 6.2848 3.47291 6.26184 3.47109 6.23818C3.33896 5.59649 3.20751 4.95491 3.07673 4.31346C3.01218 3.99782 2.94945 3.68236 2.88218 3.368C2.87582 3.33836 2.84782 3.29235 2.82764 3.29089C2.724 3.28289 2.61891 3.28727 2.50418 3.28727C2.51054 3.38564 2.51745 3.47273 2.52109 3.56C2.53055 3.74764 2.53 3.74764 2.712 3.75509C2.7554 3.75482 2.79713 3.77176 2.82804 3.80224C2.85893 3.83273 2.87644 3.87424 2.87673 3.91764C2.87702 3.96104 2.86005 4.00276 2.82956 4.03366C2.79909 4.06456 2.75758 4.08207 2.71418 4.08236C2.664 4.084 2.61327 4.08236 2.55764 4.08236C2.55764 4.12673 2.556 4.15802 2.55764 4.18875C2.57345 4.4562 2.59091 4.72362 2.60618 4.99162C2.65467 5.81671 2.70242 6.64226 2.74945 7.46818C2.758 7.612 2.78218 7.63527 2.92709 7.63527C3.41194 7.63527 3.89678 7.63527 4.38164 7.63527C4.52709 7.63527 4.55073 7.61527 4.55982 7.46927C4.59145 6.948 4.62054 6.42727 4.65182 5.90564C4.68358 5.3648 4.71564 4.82398 4.748 4.28325C4.75164 4.21925 4.748 4.15473 4.748 4.08182H3.99891C3.88473 4.08182 3.77054 4.08291 3.65636 4.08182C3.53691 4.08073 3.46873 4.02109 3.46818 3.92018C3.46764 3.81927 3.53527 3.75655 3.65273 3.75473C3.68709 3.75473 3.72145 3.75473 3.75582 3.75473H4.69673C4.73745 3.75473 4.77964 3.76055 4.78236 3.70018C4.78909 3.56636 4.79709 3.43309 4.80491 3.292Z" fill="#004274"/>
<path d="M4.53218 6.97442C4.53249 7.04355 4.51914 7.11204 4.49291 7.176C4.46667 7.23996 4.42805 7.29811 4.37927 7.34711C4.33051 7.39609 4.27253 7.43496 4.20869 7.46149C4.14485 7.48802 4.0764 7.50169 4.00727 7.50169C3.86722 7.50169 3.73289 7.44605 3.63385 7.34702C3.53482 7.24798 3.47918 7.11365 3.47918 6.97358C3.47918 6.83353 3.53482 6.6992 3.63385 6.60016C3.73289 6.50113 3.86722 6.44549 4.00727 6.44549C4.07655 6.44549 4.14513 6.45922 4.20907 6.48584C4.27302 6.51247 4.33107 6.55149 4.37985 6.60065C4.42865 6.64982 4.46724 6.70816 4.49338 6.77231C4.51953 6.83645 4.53271 6.90515 4.53218 6.97442ZM4.00836 7.16895C4.04682 7.16785 4.08407 7.15538 4.11544 7.13313C4.1468 7.11085 4.17087 7.07982 4.18458 7.04387C4.19831 7.00795 4.20107 6.96875 4.19253 6.93124C4.18396 6.89375 4.16449 6.85962 4.13656 6.83318C4.10862 6.80675 4.07347 6.78918 4.03556 6.78271C3.99765 6.77624 3.95867 6.78115 3.92354 6.79684C3.88842 6.81251 3.85873 6.83824 3.83824 6.87078C3.81773 6.90333 3.80734 6.94122 3.80836 6.97967C3.81016 7.03115 3.83216 7.07985 3.86958 7.11524C3.90702 7.15062 3.95687 7.16985 4.00836 7.16876V7.16895Z" fill="#004274"/>
<path d="M4.19509 5.43564C4.10698 5.43551 4.02089 5.40924 3.94771 5.36016C3.87455 5.31109 3.81756 5.2414 3.78398 5.15995C3.7504 5.07847 3.74175 4.98889 3.75909 4.90251C3.77642 4.81613 3.819 4.73682 3.88142 4.67464C3.94384 4.61245 4.02329 4.57016 4.10975 4.55315C4.19618 4.53611 4.28575 4.54511 4.36709 4.57898C4.44842 4.61285 4.51789 4.67007 4.56669 4.74344C4.61551 4.8168 4.64145 4.903 4.64127 4.99111C4.64084 5.10916 4.59364 5.22222 4.51002 5.30555C4.42638 5.38885 4.31315 5.43564 4.19509 5.43564Z" fill="#004274"/>
<path d="M3.00727 6.09695C3.04289 6.09605 3.07831 6.10235 3.11144 6.1154C3.14458 6.12847 3.17476 6.14805 3.2002 6.173C3.22562 6.19795 3.2458 6.22773 3.25951 6.2606C3.27322 6.29347 3.28018 6.32878 3.28 6.3644C3.28062 6.40005 3.27422 6.43547 3.26113 6.46865C3.24806 6.50184 3.22856 6.53211 3.20376 6.55775C3.17898 6.58338 3.14938 6.60385 3.11665 6.61804C3.08395 6.63224 3.04875 6.63982 3.01309 6.6404C2.94107 6.64009 2.872 6.6118 2.82049 6.56147C2.76898 6.51115 2.73907 6.44275 2.73709 6.37075C2.7368 6.29867 2.76506 6.22942 2.81569 6.17811C2.86631 6.1268 2.9352 6.09762 3.00727 6.09695Z" fill="#004274"/>
</g>
<defs>
<clipPath id="clip0_2_80">
<rect width="4.36364" height="8" fill="white" transform="translate(0.818182)"/>
</clipPath>
</defs>
</svg>
