<svg width="38" height="38" viewBox="0 0 38 38" fill="none" xmlns="http://www.w3.org/2000/svg">
<path d="M37.45 14.3579V15.8929C37.3446 16.3883 37.2049 16.8758 37.032 17.3519C36.7806 17.9471 36.4012 18.4798 35.9207 18.9119C35.4402 19.3439 34.8705 19.6649 34.252 19.8519C34.1579 19.8691 34.0744 19.9231 34.02 20.0018C33.9656 20.0806 33.9448 20.1778 33.962 20.2719C33.9673 25.1232 33.969 29.9759 33.967 34.8299V35.1469C34.667 35.1469 35.331 35.1769 35.996 35.1389C36.3046 35.0911 36.6201 35.1547 36.8863 35.3181C37.1524 35.4814 37.3519 35.7341 37.449 36.0309V36.5619C37.3724 36.7637 37.2541 36.947 37.1017 37.0999C36.9494 37.2527 36.7665 37.3717 36.565 37.4489H1.35999C1.15858 37.3709 0.975667 37.2517 0.822937 37.0989C0.670207 36.9462 0.550999 36.7633 0.472961 36.5619V36.0309C0.571874 35.7346 0.772128 35.4827 1.03845 35.3196C1.30478 35.1564 1.62016 35.0924 1.92902 35.1389C2.59302 35.1769 3.26101 35.1469 3.95801 35.1469V20.4819C3.95801 19.9639 3.95797 19.9689 3.47797 19.7879C2.92808 19.5979 2.42251 19.2983 1.99176 18.9073C1.56101 18.5162 1.21407 18.0419 0.971985 17.5129C0.769219 16.985 0.602175 16.4441 0.471985 15.8939V14.3589L37.45 14.3579ZM14.35 35.1309H31.677V20.5959C31.677 19.9559 31.672 19.9749 31.089 19.7389C30.5508 19.5327 30.0591 19.2214 29.6425 18.8233C29.2258 18.4252 28.8925 17.9481 28.662 17.4199C28.4885 16.9832 28.3373 16.5379 28.209 16.0859C27.64 18.5429 26.183 20.0859 23.55 20.0729C20.963 20.0539 19.528 18.5189 18.961 16.0479C18.8146 17.1699 18.2676 18.2012 17.4208 18.9517C16.574 19.7022 15.4844 20.1214 14.353 20.1319L14.35 35.1309ZM13.187 35.1389V20.4999C13.1993 20.3827 13.1966 20.2644 13.179 20.1479C13.1462 20.0491 13.0837 19.9628 13 19.9009C12.9053 19.8482 12.8046 19.8072 12.7 19.7789C11.9385 19.5012 11.2661 19.023 10.7539 18.3948C10.2417 17.7666 9.90863 17.0117 9.78998 16.2099C9.77898 16.1419 9.75498 16.0749 9.73798 16.0099C9.68337 16.0735 9.64863 16.1517 9.638 16.2349C9.54718 16.8194 9.34083 17.38 9.03101 17.8839C8.45279 18.8331 7.54828 19.5388 6.487 19.8689C6.281 19.9369 6.24298 20.0399 6.24298 20.2319C6.24831 25.1025 6.24999 29.9749 6.24799 34.8489C6.24799 34.9489 6.25898 35.0389 6.26398 35.1389H13.187Z" fill="#004274"/>
<path d="M37.45 13.1169V13.1769H0.47699V13.1169C0.541028 13.0324 0.599177 12.9435 0.651001 12.8509C1.267 11.6196 1.88166 10.3893 2.495 9.15997C3.312 7.52497 4.14096 5.89795 4.94696 4.25995C4.98038 4.16244 5.04639 4.07941 5.13379 4.02478C5.22119 3.97015 5.32471 3.94727 5.427 3.95996C12.5757 3.96796 19.7223 3.97062 26.867 3.96795C28.767 3.96795 30.667 3.96795 32.567 3.96295C32.6519 3.95178 32.7381 3.97026 32.811 4.01526C32.8838 4.06026 32.9389 4.12903 32.967 4.20996C33.444 5.20296 33.946 6.18195 34.437 7.16595C35.137 8.56595 35.837 9.97793 36.544 11.3829C36.835 11.9629 37.146 12.5359 37.45 13.1169ZM26.467 10.79C26.426 10.698 26.367 10.5319 26.288 10.3779C25.648 9.19526 25.0043 8.01559 24.357 6.83893C24.181 6.51893 24.007 6.19895 23.807 5.89795C23.7342 5.79075 23.6235 5.71502 23.4973 5.68591C23.371 5.6568 23.2384 5.67647 23.126 5.74096C23.0083 5.79349 22.9134 5.88638 22.8584 6.00287C22.8034 6.11935 22.7919 6.25174 22.826 6.37597C22.8763 6.53462 22.9434 6.68747 23.026 6.83197C23.5193 7.73797 24.0136 8.64293 24.509 9.54693C24.809 10.0979 25.109 10.6469 25.428 11.1899C25.4856 11.3017 25.5827 11.388 25.7004 11.4322C25.8181 11.4764 25.9481 11.4752 26.065 11.429C26.1959 11.3859 26.3077 11.2985 26.381 11.1818C26.4544 11.0652 26.4848 10.9266 26.467 10.79V10.79ZM14.909 6.33392C14.9288 6.19165 14.895 6.0471 14.8142 5.92834C14.7334 5.80959 14.6113 5.72512 14.4717 5.69134C14.3321 5.65756 14.1849 5.67687 14.0587 5.74554C13.9325 5.81421 13.8364 5.92734 13.789 6.06292C13.1463 7.34292 12.5064 8.62462 11.869 9.90796C11.7345 10.1588 11.614 10.4168 11.508 10.681C11.4589 10.8111 11.4599 10.9547 11.5106 11.0842C11.5613 11.2136 11.6582 11.3197 11.7825 11.3819C11.9069 11.4441 12.0499 11.4579 12.1839 11.4208C12.3179 11.3837 12.4333 11.2983 12.508 11.181C12.5734 11.085 12.6321 10.9848 12.684 10.881C13.3946 9.45765 14.1027 8.03392 14.808 6.60992C14.8493 6.52099 14.8828 6.42865 14.908 6.33392H14.909ZM10.291 6.29596C10.2999 6.16525 10.2639 6.03539 10.189 5.92791C10.1141 5.82044 10.0047 5.74179 9.87897 5.70495C9.76168 5.66121 9.6324 5.6622 9.51581 5.70776C9.39922 5.75333 9.30355 5.84028 9.24701 5.95196C8.95401 6.49696 8.677 7.05196 8.401 7.60296C7.901 8.59296 7.40098 9.58293 6.91998 10.5809C6.87814 10.6486 6.85108 10.7243 6.84052 10.8032C6.82995 10.882 6.83614 10.9622 6.8587 11.0384C6.88126 11.1147 6.91969 11.1853 6.97144 11.2457C7.02318 11.3061 7.08709 11.355 7.159 11.389C7.22904 11.4273 7.30657 11.4499 7.38623 11.4553C7.46589 11.4606 7.54573 11.4487 7.6203 11.4202C7.69487 11.3916 7.76234 11.3472 7.81805 11.29C7.87377 11.2328 7.91642 11.1642 7.94299 11.0889C8.69699 9.60293 9.44297 8.11094 10.186 6.61694C10.229 6.51285 10.2638 6.40553 10.29 6.29596H10.291ZM28.263 5.61798L28.211 5.67193C28.1531 5.68042 28.096 5.69314 28.04 5.70996C27.658 5.83496 27.54 6.18696 27.753 6.62896C28.062 7.26396 28.385 7.89293 28.702 8.52893C29.1306 9.38826 29.561 10.249 29.993 11.111C30.0367 11.2218 30.1156 11.3152 30.2174 11.377C30.3193 11.4387 30.4385 11.4654 30.557 11.4529C30.6726 11.4526 30.7846 11.4127 30.8745 11.34C30.9643 11.2672 31.0266 11.166 31.051 11.053C31.0815 10.8818 31.0606 10.7053 30.991 10.546C30.478 9.48596 29.947 8.43398 29.421 7.38098C29.188 6.91698 28.965 6.44492 28.703 5.99792C28.609 5.83792 28.411 5.74298 28.262 5.61798H28.263ZM19.555 8.56598V6.94397C19.555 6.70797 19.566 6.47196 19.544 6.23596C19.5367 6.08681 19.4728 5.94604 19.3655 5.84222C19.2581 5.73841 19.1153 5.6793 18.966 5.67694C18.8166 5.68002 18.6738 5.73872 18.5654 5.84155C18.4571 5.94438 18.3909 6.08397 18.38 6.23297C18.3733 6.31145 18.3707 6.39018 18.372 6.46893C18.372 7.86293 18.372 9.25861 18.372 10.6559C18.3679 10.7829 18.3816 10.9098 18.413 11.033C18.446 11.1525 18.5174 11.2579 18.6161 11.3331C18.7148 11.4082 18.8354 11.4489 18.9595 11.4489C19.0835 11.4489 19.2041 11.4082 19.3029 11.3331C19.4016 11.2579 19.4729 11.1525 19.506 11.033C19.5379 10.9099 19.5524 10.783 19.549 10.6559C19.557 9.96294 19.554 9.26292 19.554 8.56292L19.555 8.56598Z" fill="#004274"/>
<path d="M31.959 0.475647C32.1911 0.612005 32.405 0.776929 32.596 0.966614C32.7341 1.13672 32.8157 1.34573 32.8294 1.56445C32.843 1.78317 32.788 2.00071 32.672 2.18665C32.5739 2.37564 32.423 2.53205 32.2376 2.63696C32.0523 2.74187 31.8406 2.79077 31.628 2.77765H6.29598C6.03343 2.78993 5.77475 2.71067 5.56411 2.55347C5.35347 2.39626 5.20395 2.17084 5.14102 1.91565C5.07483 1.65077 5.10411 1.37104 5.22372 1.12561C5.34333 0.880177 5.5456 0.684755 5.79501 0.573669C5.85501 0.546669 5.91098 0.508633 5.96798 0.473633L31.959 0.475647Z" fill="#004274"/>
<path d="M27.186 23.0077L20.699 29.5077L19.932 28.7487L26.438 22.2427L27.186 23.0077Z" fill="#004274"/>
<path d="M19.924 25.5239L23.238 22.2129C23.447 22.4409 23.675 22.6788 23.881 22.9338C23.8969 22.9721 23.9029 23.0138 23.8986 23.0551C23.8942 23.0963 23.8795 23.1357 23.856 23.1699C22.8606 24.1785 21.8606 25.1785 20.856 26.1699C20.821 26.192 20.7811 26.2049 20.7398 26.2073C20.6985 26.2098 20.6573 26.2017 20.62 26.1838C20.377 25.9738 20.149 25.7409 19.924 25.5239Z" fill="#004274"/>
<path d="M23.918 29.565C23.718 29.343 23.5059 29.112 23.2969 28.879C23.2649 28.844 23.237 28.803 23.205 28.76L26.4479 25.522L27.178 26.322L23.918 29.565Z" fill="#004274"/>
<path d="M10.8659 30.4978C10.6384 30.5057 10.4141 30.4419 10.2248 30.3154C10.0355 30.1889 9.8907 30.006 9.81095 29.7927C9.72925 29.5754 9.71477 29.3384 9.76933 29.1127C9.82389 28.887 9.94501 28.6828 10.117 28.5268C10.2235 28.4194 10.288 28.2776 10.2989 28.1268C10.3149 27.4108 10.3149 26.6931 10.2989 25.9738C10.2883 25.8225 10.2229 25.6802 10.115 25.5738C10.0023 25.4714 9.91107 25.3477 9.8466 25.2098C9.78212 25.0719 9.74569 24.9226 9.73936 24.7705C9.73303 24.6184 9.75699 24.4665 9.80979 24.3238C9.8626 24.181 9.94321 24.0501 10.047 23.9387C10.1528 23.8256 10.2806 23.7353 10.4225 23.6732C10.5644 23.6112 10.7174 23.5786 10.8723 23.5777C11.0272 23.5767 11.1807 23.6073 11.3233 23.6676C11.466 23.7279 11.5949 23.8167 11.7021 23.9285C11.8094 24.0403 11.8927 24.1727 11.947 24.3178C12.0013 24.4628 12.0255 24.6174 12.0181 24.7721C12.0107 24.9268 11.9718 25.0785 11.9039 25.2177C11.836 25.3569 11.7404 25.4807 11.623 25.5817C11.5283 25.6726 11.4703 25.795 11.4599 25.9257C11.4459 26.6717 11.4459 27.4198 11.4599 28.1658C11.4719 28.2961 11.5297 28.418 11.623 28.5098C11.7969 28.6634 11.9205 28.8659 11.9776 29.0909C12.0347 29.3159 12.0226 29.5528 11.943 29.7708C11.8654 29.9916 11.7187 30.1816 11.5248 30.3125C11.3308 30.4435 11.0998 30.5084 10.8659 30.4978V30.4978Z" fill="#004274"/>
</svg>
