<svg width="34" height="18" viewBox="0 0 34 18" fill="none" xmlns="http://www.w3.org/2000/svg">
<path d="M5.35901 8.98929C5.35901 6.86063 5.35901 4.73163 5.35901 2.6023C5.36501 0.961298 6.1449 0.110308 7.6449 0.112308C9.0689 0.112308 9.87993 0.988297 9.88293 2.5503C9.88293 6.8403 9.88293 11.1306 9.88293 15.4213C9.9247 15.7361 9.89527 16.0563 9.79675 16.3582C9.69823 16.6601 9.53314 16.9361 9.31372 17.1657C9.0943 17.3952 8.82619 17.5726 8.52905 17.6847C8.23191 17.7968 7.91331 17.8408 7.59692 17.8133C6.17292 17.8133 5.36492 16.9343 5.36292 15.3753C5.35492 13.2463 5.36292 11.1173 5.36292 8.98832" fill="#004274"/>
<path d="M28.5689 8.99442C28.5689 11.1234 28.5749 13.2524 28.5689 15.3814C28.5689 16.9434 27.7579 17.8134 26.3259 17.8134C26.0094 17.8396 25.6911 17.7945 25.3944 17.6813C25.0977 17.5682 24.8302 17.3898 24.6115 17.1595C24.3929 16.9292 24.2289 16.6527 24.1313 16.3505C24.0338 16.0483 24.0053 15.7281 24.0479 15.4134C24.0426 11.1234 24.0426 6.83309 24.0479 2.54242C24.0241 2.23255 24.0642 1.92108 24.1659 1.62738C24.2675 1.33369 24.4286 1.06404 24.6389 0.835208C24.8492 0.606379 25.1043 0.423243 25.3884 0.297214C25.6725 0.171184 25.9795 0.10494 26.2903 0.102603C26.601 0.100266 26.909 0.161891 27.1949 0.283633C27.4809 0.405376 27.7388 0.584635 27.9525 0.810275C28.1662 1.03592 28.3312 1.30312 28.4372 1.59525C28.5433 1.88738 28.5881 2.19823 28.5689 2.50843C28.5769 4.66943 28.5689 6.8314 28.5689 8.9924" fill="#004274"/>
<path d="M23.178 6.86621H10.749V11.1072H23.178V6.86621Z" fill="#004274"/>
<path d="M2.32495 5.78437C2.65295 4.12437 3.25803 3.50336 4.53003 3.50636V14.3654C3.33603 14.4954 2.68591 13.8504 2.30591 12.1764C1.07191 12.0244 0.835938 11.7584 0.835938 10.5114C0.835938 9.4347 0.835938 8.35638 0.835938 7.27638C0.840937 6.19138 1.14495 5.87638 2.32495 5.78538" fill="#004274"/>
<path d="M31.6221 12.1763C31.2581 13.7923 30.697 14.3763 29.422 14.4303V3.50931C30.675 3.50431 31.28 4.12732 31.594 5.72232C32.868 5.92232 33.094 6.1883 33.094 7.4743V10.5143C33.094 11.7593 32.855 12.0253 31.619 12.1763" fill="#004274"/>
</svg>
