<svg width="33" height="36" viewBox="0 0 33 36" fill="none" xmlns="http://www.w3.org/2000/svg">
<path d="M10.395 4.95508V6.54504C10.3892 6.80318 10.4349 7.05997 10.5297 7.30017C10.6244 7.54037 10.7662 7.75921 10.9467 7.94385C11.1272 8.12849 11.3427 8.2752 11.5807 8.37537C11.8187 8.47553 12.0743 8.5271 12.3325 8.5271C12.5907 8.5271 12.8463 8.47553 13.0843 8.37537C13.3223 8.2752 13.5379 8.12849 13.7184 7.94385C13.8989 7.75921 14.0407 7.54037 14.1354 7.30017C14.2301 7.05997 14.2759 6.80318 14.27 6.54504V4.95508C14.2585 4.44884 14.0494 3.96725 13.6873 3.61328C13.3252 3.25932 12.8389 3.06104 12.3325 3.06104C11.8262 3.06104 11.3399 3.25932 10.9778 3.61328C10.6157 3.96725 10.4065 4.44884 10.395 4.95508V4.95508ZM13.233 4.95508V6.54504C13.233 6.66323 13.2097 6.78033 13.1645 6.88953C13.1193 6.99872 13.053 7.09782 12.9694 7.1814C12.8859 7.26497 12.7866 7.33136 12.6774 7.37659C12.5682 7.42182 12.4512 7.44507 12.333 7.44507C12.2148 7.44507 12.0978 7.42182 11.9886 7.37659C11.8794 7.33136 11.7802 7.26497 11.6966 7.1814C11.613 7.09782 11.5468 6.99872 11.5015 6.88953C11.4563 6.78033 11.433 6.66323 11.433 6.54504V4.95508C11.433 4.71638 11.5278 4.48751 11.6966 4.31873C11.8654 4.14994 12.0943 4.05505 12.333 4.05505C12.5717 4.05505 12.8007 4.14994 12.9694 4.31873C13.1382 4.48751 13.233 4.71638 13.233 4.95508V4.95508Z" fill="#004274"/>
<path d="M22.051 4.05701C22.1886 4.05701 22.3206 4.00236 22.418 3.90503C22.5153 3.8077 22.5699 3.67573 22.5699 3.53809C22.5699 3.40044 22.5153 3.26835 22.418 3.17102C22.3206 3.07369 22.1886 3.01904 22.051 3.01904H19.213C19.0758 3.01931 18.9444 3.07391 18.8474 3.17078C18.7503 3.26765 18.6955 3.39888 18.6949 3.53601V7.96411C18.6948 8.03227 18.7081 8.0997 18.7341 8.16272C18.76 8.22574 18.7982 8.28301 18.8463 8.3313C18.8944 8.37959 18.9515 8.41801 19.0144 8.44421C19.0773 8.47042 19.1448 8.48388 19.213 8.48401H22.051C22.1886 8.48401 22.3206 8.42936 22.418 8.33203C22.5153 8.2347 22.5699 8.10274 22.5699 7.96509C22.5699 7.82744 22.5153 7.69535 22.418 7.59802C22.3206 7.50069 22.1886 7.44604 22.051 7.44604H19.7339V6.26904H21.2889C21.4266 6.26904 21.5586 6.2144 21.6559 6.11707C21.7533 6.01973 21.808 5.88765 21.808 5.75C21.808 5.61235 21.7533 5.48039 21.6559 5.38306C21.5586 5.28573 21.4266 5.23108 21.2889 5.23108H19.7339V4.05603L22.051 4.05701Z" fill="#004274"/>
<path d="M9.52692 8.48706C9.66439 8.48653 9.79608 8.43147 9.89301 8.33398C9.98993 8.23649 10.0442 8.10452 10.0439 7.96704V3.53906C10.0439 3.40142 9.98924 3.26945 9.89191 3.17212C9.79458 3.07479 9.66261 3.02002 9.52496 3.02002C9.38732 3.02002 9.25529 3.07479 9.15796 3.17212C9.06063 3.26945 9.00592 3.40142 9.00592 3.53906V5.23901H7.20593V3.53906C7.20593 3.40142 7.15129 3.26945 7.05396 3.17212C6.95662 3.07479 6.8246 3.02002 6.68695 3.02002C6.5493 3.02002 6.41728 3.07479 6.31995 3.17212C6.22261 3.26945 6.16797 3.40142 6.16797 3.53906V7.96704C6.16797 8.10469 6.22261 8.23678 6.31995 8.33411C6.41728 8.43144 6.5493 8.48608 6.68695 8.48608C6.8246 8.48608 6.95662 8.43144 7.05396 8.33411C7.15129 8.23678 7.20593 8.10469 7.20593 7.96704V6.27209H9.00592V7.96704C9.00592 8.03541 9.0194 8.10311 9.04559 8.16626C9.07179 8.22941 9.11018 8.28678 9.15857 8.33508C9.20696 8.38338 9.26443 8.42168 9.32764 8.44775C9.39084 8.47383 9.45855 8.48719 9.52692 8.48706Z" fill="#004274"/>
<path d="M16.4141 8.48694C16.4822 8.48681 16.5497 8.47322 16.6126 8.44702C16.6755 8.42082 16.7327 8.38252 16.7808 8.33423C16.8289 8.28594 16.867 8.22867 16.8929 8.16565C16.9189 8.10263 16.9322 8.03508 16.9321 7.96692V4.05994H17.832C17.9697 4.05994 18.1017 4.00529 18.199 3.90796C18.2964 3.81063 18.3511 3.67854 18.3511 3.54089C18.3511 3.40325 18.2964 3.27128 18.199 3.17395C18.1017 3.07662 17.9697 3.02197 17.832 3.02197H14.9971C14.8594 3.02197 14.7274 3.07662 14.6301 3.17395C14.5327 3.27128 14.478 3.40325 14.478 3.54089C14.478 3.67854 14.5327 3.81063 14.6301 3.90796C14.7274 4.00529 14.8594 4.05994 14.9971 4.05994H15.897V7.96692C15.897 8.10431 15.9514 8.23619 16.0483 8.33362C16.1451 8.43105 16.2767 8.48615 16.4141 8.48694V8.48694Z" fill="#004274"/>
<path d="M23.366 3.01904C23.2291 3.01957 23.0979 3.07418 23.001 3.17102C22.9042 3.26786 22.8495 3.39906 22.849 3.53601V7.96411C22.8487 8.10159 22.9031 8.23344 23 8.33093C23.0969 8.42842 23.2286 8.48348 23.366 8.48401H25.512C25.6497 8.48401 25.7817 8.42936 25.879 8.33203C25.9764 8.2347 26.031 8.10274 26.031 7.96509C26.031 7.82744 25.9764 7.69535 25.879 7.59802C25.7817 7.50069 25.6497 7.44604 25.512 7.44604H23.886V3.53503C23.885 3.39782 23.8297 3.26658 23.7323 3.16992C23.6349 3.07327 23.5033 3.01904 23.366 3.01904V3.01904Z" fill="#004274"/>
<path d="M31.739 13.9512H28.587V10.3872C28.587 10.319 28.5735 10.2515 28.5474 10.1885C28.5212 10.1255 28.4828 10.0684 28.4345 10.0203C28.3862 9.97214 28.3289 9.934 28.2658 9.90808C28.2027 9.88217 28.1352 9.86888 28.067 9.86914H27.895V6.65125C27.895 6.5136 27.8403 6.38151 27.743 6.28418C27.6457 6.18685 27.5136 6.13221 27.376 6.13221C27.2383 6.13221 27.1063 6.18685 27.009 6.28418C26.9116 6.38151 26.8569 6.5136 26.8569 6.65125V9.86914H5.34198V1.63526H26.86V4.22815C26.86 4.3658 26.9146 4.49789 27.012 4.59522C27.1093 4.69255 27.2413 4.7472 27.379 4.7472C27.5166 4.7472 27.6486 4.69255 27.746 4.59522C27.8433 4.49789 27.898 4.3658 27.898 4.22815V1.11414C27.8978 1.0459 27.8842 0.978392 27.858 0.915409C27.8317 0.852426 27.7933 0.79531 27.7449 0.747196C27.6965 0.699082 27.6391 0.660915 27.576 0.635014C27.5129 0.609112 27.4452 0.595932 27.377 0.596195H4.82495C4.7568 0.596064 4.6893 0.609419 4.62629 0.63538C4.56327 0.661341 4.50599 0.69934 4.45771 0.74744C4.40942 0.795541 4.37106 0.852736 4.34485 0.915653C4.31865 0.978571 4.30513 1.04598 4.305 1.11414V9.86817H4.13294C4.06475 9.8679 3.99722 9.88119 3.93415 9.90711C3.87107 9.93302 3.8137 9.97104 3.76538 10.0192C3.71707 10.0673 3.67875 10.1245 3.65259 10.1875C3.62643 10.2505 3.61298 10.318 3.61298 10.3862V13.9502H0.533939C0.39673 13.9502 0.265149 14.0046 0.168034 14.1016C0.0709185 14.1985 0.01626 14.33 0.0159951 14.4672V35.1532C0.015732 35.2214 0.0289116 35.289 0.0548134 35.3522C0.0807153 35.4153 0.118821 35.4727 0.166935 35.5211C0.215049 35.5695 0.272226 35.6079 0.335209 35.6342C0.398192 35.6604 0.465699 35.6741 0.533939 35.6742H5.93396C6.07161 35.6742 6.20364 35.6196 6.30097 35.5222C6.3983 35.4249 6.45295 35.2928 6.45295 35.1552C6.45295 35.0175 6.3983 34.8855 6.30097 34.7882C6.20364 34.6909 6.07161 34.6362 5.93396 34.6362H4.65497V10.9063H27.555V34.6362H20.083V25.4692C20.0831 25.4008 20.0697 25.3329 20.0436 25.2697C20.0174 25.2064 19.9791 25.1489 19.9307 25.1005C19.8823 25.0521 19.8247 25.0137 19.7615 24.9876C19.6982 24.9614 19.6304 24.9481 19.562 24.9482H12.645C12.5766 24.9482 12.5089 24.9617 12.4457 24.9879C12.3826 25.0141 12.3252 25.0524 12.2769 25.1008C12.2286 25.1492 12.1903 25.2067 12.1642 25.2699C12.1382 25.3331 12.1248 25.4009 12.1249 25.4692V34.6362H8.35395C8.2163 34.6362 8.08433 34.6909 7.987 34.7882C7.88967 34.8855 7.83496 35.0175 7.83496 35.1552C7.83496 35.2928 7.88967 35.4249 7.987 35.5222C8.08433 35.6196 8.2163 35.6742 8.35395 35.6742H31.741C31.8092 35.6741 31.8768 35.6604 31.9398 35.6342C32.0027 35.6079 32.0599 35.5695 32.108 35.5211C32.1561 35.4727 32.1943 35.4153 32.2202 35.3522C32.2461 35.289 32.2592 35.2214 32.259 35.1532V14.4681C32.259 14.4 32.2455 14.3326 32.2193 14.2697C32.1931 14.2067 32.1548 14.1496 32.1065 14.1016C32.0582 14.0535 32.0008 14.0154 31.9377 13.9896C31.8747 13.9638 31.8071 13.9508 31.739 13.9512ZM1.05396 18.6512H3.61194V20.3812H1.05396V18.6512ZM3.61194 21.4192V22.7332H1.05396V21.4192H3.61194ZM3.61194 25.5012H1.05396V23.7712H3.61194V25.5012ZM1.05396 26.5392H3.61194V27.8532H1.05396V26.5392ZM1.05396 28.8912H3.61194V30.6212H1.05396V28.8912ZM3.61194 14.9852V17.6132H1.05396V14.9852H3.61194ZM1.05396 31.6592H3.61194V34.6332H1.05396V31.6592ZM31.218 30.6212H28.587V28.8912H31.215L31.218 30.6212ZM31.218 25.5012H28.587V23.7712H31.215L31.218 25.5012ZM28.59 22.7332V21.4192H31.218V22.7332H28.59ZM31.218 20.3812H28.587V18.6512H31.215L31.218 20.3812ZM28.59 27.8532V26.5392H31.218V27.8532H28.59ZM31.218 14.9852V17.6132H28.587V14.9852H31.218ZM13.16 34.6332V25.9843H19.042V34.6332H13.16ZM28.589 34.6332V31.6592H31.217V34.6332H28.589Z" fill="#004274"/>
<path d="M6.41504 16.3059H9.18304C9.2512 16.3058 9.31861 16.2922 9.38153 16.266C9.44445 16.2398 9.50164 16.2015 9.54974 16.1532C9.59784 16.1049 9.6359 16.0476 9.66187 15.9846C9.68783 15.9216 9.70112 15.854 9.70099 15.7859V13.0179C9.70046 12.8808 9.6457 12.7495 9.54865 12.6526C9.45159 12.5557 9.32017 12.5012 9.18304 12.501H6.41504C6.27756 12.5007 6.14559 12.5549 6.0481 12.6519C5.95061 12.7488 5.89555 12.8805 5.89502 13.0179V15.7859C5.89502 15.9238 5.94978 16.0562 6.0473 16.1537C6.14482 16.2512 6.27713 16.3059 6.41504 16.3059V16.3059ZM6.93201 13.538H8.66205V15.2679H6.93201V13.538Z" fill="#004274"/>
<path d="M11.952 16.3059H14.72C14.7882 16.3058 14.8557 16.2922 14.9186 16.266C14.9815 16.2398 15.0386 16.2015 15.0867 16.1532C15.1348 16.1049 15.173 16.0476 15.1989 15.9846C15.2249 15.9216 15.2382 15.854 15.238 15.7859V13.0179C15.2375 12.8808 15.1828 12.7495 15.0857 12.6526C14.9886 12.5557 14.8572 12.5012 14.72 12.501H11.952C11.8839 12.5007 11.8164 12.5138 11.7533 12.5397C11.6902 12.5655 11.6329 12.6035 11.5845 12.6515C11.5361 12.6995 11.4976 12.7566 11.4713 12.8195C11.445 12.8823 11.4313 12.9498 11.431 13.0179V15.7859C11.431 15.8543 11.4445 15.922 11.4707 15.9851C11.4969 16.0483 11.5353 16.1056 11.5837 16.1539C11.6321 16.2022 11.6895 16.2405 11.7527 16.2666C11.816 16.2927 11.8837 16.306 11.952 16.3059ZM12.4691 13.538H14.199V15.2679H12.4691V13.538Z" fill="#004274"/>
<path d="M17.4839 16.3059H20.252C20.3899 16.3059 20.5221 16.2512 20.6196 16.1537C20.7171 16.0562 20.772 15.9238 20.772 15.7859V13.0179C20.7714 12.8805 20.7164 12.7488 20.6189 12.6519C20.5214 12.5549 20.3894 12.5007 20.252 12.501H17.4839C17.3468 12.5012 17.2154 12.5557 17.1183 12.6526C17.0213 12.7495 16.9665 12.8808 16.9659 13.0179V15.7859C16.9658 15.854 16.9791 15.9216 17.0051 15.9846C17.031 16.0476 17.0691 16.1049 17.1172 16.1532C17.1654 16.2015 17.2225 16.2398 17.2854 16.266C17.3483 16.2922 17.4158 16.3058 17.4839 16.3059V16.3059ZM18.004 13.538H19.7339V15.2679H18.007L18.004 13.538Z" fill="#004274"/>
<path d="M23.02 16.3059H25.788C25.8563 16.306 25.9241 16.2927 25.9873 16.2666C26.0505 16.2405 26.1079 16.2022 26.1563 16.1539C26.2047 16.1056 26.2431 16.0483 26.2693 15.9851C26.2955 15.922 26.309 15.8543 26.309 15.7859V13.0179C26.3087 12.9498 26.295 12.8823 26.2687 12.8195C26.2424 12.7566 26.204 12.6995 26.1556 12.6515C26.1072 12.6035 26.0498 12.5655 25.9868 12.5397C25.9237 12.5138 25.8561 12.5007 25.788 12.501H23.02C22.8828 12.5012 22.7514 12.5557 22.6544 12.6526C22.5573 12.7495 22.5025 12.8808 22.502 13.0179V15.7859C22.5018 15.854 22.5151 15.9216 22.5411 15.9846C22.567 16.0476 22.6052 16.1049 22.6533 16.1532C22.7014 16.2015 22.7585 16.2398 22.8214 16.266C22.8843 16.2922 22.9518 16.3058 23.02 16.3059V16.3059ZM23.54 13.538H25.27V15.2679H23.539L23.54 13.538Z" fill="#004274"/>
<path d="M5.89502 20.9022C5.89489 20.9706 5.90825 21.0384 5.93433 21.1016C5.9604 21.1648 5.9987 21.2221 6.047 21.2705C6.0953 21.3189 6.15267 21.3574 6.21582 21.3835C6.27898 21.4097 6.34667 21.4232 6.41504 21.4232H9.18305C9.32078 21.4227 9.45269 21.3676 9.54981 21.2699C9.64692 21.1722 9.70126 21.04 9.70099 20.9022V18.1342C9.70073 17.9969 9.6461 17.8653 9.54901 17.7682C9.45193 17.6711 9.32035 17.6165 9.18305 17.6162H6.41504C6.34688 17.6161 6.27933 17.6293 6.21631 17.6553C6.15329 17.6812 6.09602 17.7194 6.04773 17.7675C5.99944 17.8156 5.96114 17.8728 5.93494 17.9357C5.90873 17.9986 5.89515 18.066 5.89502 18.1342V20.9022ZM6.93305 18.6552H8.66303V20.3853H6.93305V18.6552Z" fill="#004274"/>
<path d="M11.431 20.9022C11.4309 20.9707 11.4443 21.0384 11.4704 21.1017C11.4965 21.165 11.5349 21.2225 11.5833 21.2709C11.6317 21.3193 11.6892 21.3577 11.7525 21.3838C11.8158 21.4099 11.8836 21.4234 11.952 21.4232H14.72C14.8578 21.4227 14.9897 21.3676 15.0868 21.2699C15.1839 21.1722 15.2383 21.04 15.238 20.9022V18.1342C15.2378 17.9969 15.1831 17.8653 15.086 17.7682C14.9889 17.6711 14.8573 17.6165 14.72 17.6162H11.952C11.8838 17.616 11.8162 17.6291 11.7531 17.655C11.6899 17.6809 11.6325 17.7191 11.5841 17.7672C11.5357 17.8153 11.4973 17.8724 11.471 17.9354C11.4447 17.9984 11.4312 18.0659 11.431 18.1342V20.9022ZM12.4691 18.6552H14.199V20.3853H12.4691V18.6552Z" fill="#004274"/>
<path d="M16.9659 20.9022C16.9657 21.04 17.0201 21.1722 17.1172 21.2699C17.2143 21.3676 17.3462 21.4227 17.4839 21.4232H20.252C20.3203 21.4232 20.388 21.4097 20.4512 21.3835C20.5143 21.3574 20.5717 21.3189 20.62 21.2705C20.6683 21.2221 20.7066 21.1648 20.7327 21.1016C20.7587 21.0384 20.7721 20.9706 20.772 20.9022V18.1342C20.7718 18.066 20.7583 17.9986 20.7321 17.9357C20.7059 17.8728 20.6676 17.8156 20.6193 17.7675C20.571 17.7194 20.5136 17.6812 20.4506 17.6553C20.3876 17.6293 20.3201 17.6161 20.252 17.6162H17.4839C17.3466 17.6165 17.2151 17.6711 17.118 17.7682C17.0209 17.8653 16.9662 17.9969 16.9659 18.1342V20.9022ZM18.004 18.6552H19.7339V20.3853H18.007L18.004 18.6552Z" fill="#004274"/>
<path d="M22.502 20.9022C22.5017 21.04 22.5561 21.1722 22.6532 21.2699C22.7503 21.3676 22.8822 21.4227 23.02 21.4232H25.788C25.8564 21.4234 25.9242 21.4099 25.9875 21.3838C26.0508 21.3577 26.1083 21.3193 26.1567 21.2709C26.2051 21.2225 26.2435 21.165 26.2696 21.1017C26.2957 21.0384 26.3091 20.9707 26.309 20.9022V18.1342C26.3088 18.0659 26.2952 17.9984 26.269 17.9354C26.2427 17.8724 26.2043 17.8153 26.1559 17.7672C26.1075 17.7191 26.0501 17.6809 25.987 17.655C25.9239 17.6291 25.8562 17.616 25.788 17.6162H23.02C22.8827 17.6165 22.7511 17.6711 22.654 17.7682C22.5569 17.8653 22.5022 17.9969 22.502 18.1342V20.9022ZM23.54 18.6552H25.27V20.3853H23.539L23.54 18.6552Z" fill="#004274"/>
<path d="M5.89502 26.0243C5.89489 26.0927 5.90825 26.1604 5.93433 26.2236C5.9604 26.2868 5.9987 26.3443 6.047 26.3927C6.0953 26.4411 6.15267 26.4794 6.21582 26.5056C6.27898 26.5318 6.34667 26.5453 6.41504 26.5453H9.18305C9.25129 26.5452 9.31879 26.5316 9.38178 26.5054C9.44476 26.4791 9.50194 26.4406 9.55005 26.3922C9.59816 26.3438 9.63627 26.2864 9.66217 26.2233C9.68807 26.1601 9.70125 26.0925 9.70099 26.0243V23.2563C9.70046 23.1192 9.6457 22.9879 9.54865 22.891C9.45159 22.7941 9.32017 22.7395 9.18305 22.7393H6.41504C6.27757 22.739 6.14559 22.7933 6.0481 22.8903C5.95061 22.9872 5.89555 23.1189 5.89502 23.2563V26.0243ZM6.93305 23.7773H8.66303V25.5073H6.93305V23.7773Z" fill="#004274"/>
<path d="M22.502 26.0243C22.5017 26.162 22.5561 26.2943 22.6532 26.392C22.7503 26.4896 22.8822 26.5448 23.02 26.5453H25.788C25.8564 26.5454 25.9242 26.5321 25.9875 26.506C26.0508 26.4798 26.1083 26.4415 26.1567 26.3931C26.2051 26.3447 26.2435 26.2872 26.2696 26.2239C26.2957 26.1606 26.3091 26.0928 26.309 26.0243V23.2564C26.3087 23.1882 26.295 23.1207 26.2687 23.0579C26.2424 22.995 26.204 22.9379 26.1556 22.8899C26.1072 22.8419 26.0498 22.8039 25.9868 22.7781C25.9237 22.7522 25.8561 22.739 25.788 22.7393H23.02C22.8828 22.7395 22.7514 22.7941 22.6544 22.891C22.5573 22.9879 22.5025 23.1192 22.502 23.2564V26.0243ZM23.54 23.7773H25.27V25.5073H23.539L23.54 23.7773Z" fill="#004274"/>
<path d="M5.89502 31.142C5.89489 31.2103 5.90825 31.2781 5.93433 31.3413C5.9604 31.4045 5.9987 31.462 6.047 31.5104C6.0953 31.5588 6.15267 31.5971 6.21582 31.6233C6.27898 31.6495 6.34667 31.663 6.41504 31.663H9.18305C9.32078 31.6624 9.45269 31.6073 9.54981 31.5096C9.64692 31.412 9.70126 31.2797 9.70099 31.142V28.375C9.70073 28.2377 9.6461 28.1061 9.54901 28.009C9.45193 27.9119 9.32035 27.8572 9.18305 27.8569H6.41504C6.34688 27.8568 6.27933 27.8702 6.21631 27.8961C6.15329 27.9221 6.09602 27.9602 6.04773 28.0083C5.99944 28.0564 5.96114 28.1135 5.93494 28.1764C5.90873 28.2393 5.89515 28.3068 5.89502 28.375V31.142ZM6.93305 28.895H8.66303V30.625H6.93305V28.895Z" fill="#004274"/>
<path d="M22.502 31.142C22.5017 31.2797 22.5561 31.412 22.6532 31.5096C22.7503 31.6073 22.8822 31.6624 23.02 31.663H25.788C25.8564 31.6631 25.9242 31.6497 25.9875 31.6235C26.0508 31.5974 26.1083 31.559 26.1567 31.5106C26.2051 31.4622 26.2435 31.4048 26.2696 31.3416C26.2957 31.2783 26.3091 31.2104 26.309 31.142V28.375C26.3088 28.3068 26.2952 28.2393 26.269 28.1763C26.2427 28.1133 26.2043 28.0561 26.1559 28.0079C26.1075 27.9598 26.0501 27.9218 25.987 27.8959C25.9239 27.87 25.8562 27.8567 25.788 27.8569H23.02C22.8827 27.8572 22.7511 27.912 22.654 28.009C22.5569 28.1061 22.5022 28.2377 22.502 28.375V31.142ZM23.54 28.895H25.27V30.625H23.539L23.54 28.895Z" fill="#004274"/>
</svg>
