<svg width="38" height="32" viewBox="0 0 38 32" fill="none" xmlns="http://www.w3.org/2000/svg">
<path d="M0.0370178 10.7301C2.13702 9.32212 3.22605 9.39011 4.65305 10.8711C8.22405 14.5711 12.979 14.2071 16.385 10.3041C16.6582 9.96324 16.9961 9.67984 17.3794 9.4703C17.7626 9.26075 18.1837 9.1292 18.6181 9.08327C19.0525 9.03734 19.4916 9.07793 19.9102 9.20269C20.3289 9.32744 20.7187 9.53388 21.057 9.81011C26.242 14.7001 29.613 14.6101 34.357 9.34411C34.769 9.43111 35.274 9.49912 35.757 9.64412C36.24 9.78912 36.709 10.0341 37.889 10.5311C35.889 12.5311 34.16 14.2601 32.089 16.3311C32.639 18.2671 33.32 20.6651 34.042 23.2141C33.06 23.3311 32.155 23.4341 31.048 23.5641V30.9191H27.975V23.4861L26.969 23.4101C26.858 24.6101 26.701 25.8101 26.649 27.0101C26.592 28.2981 26.635 29.5921 26.635 30.9911H23.991V23.5851C22.83 23.4521 21.9 23.3491 20.737 23.2161C21.494 20.7321 22.223 18.3451 22.966 15.9021C21.558 14.7851 20.224 13.7221 18.925 12.6861C18.697 12.8301 18.572 12.9081 18.442 12.9861C13.929 15.5761 14.775 19.7691 15.542 23.8451C15.973 26.1531 16.716 28.4011 17.383 30.9181H13.006C12.325 28.4991 11.612 25.9581 10.742 22.8611C8.37703 25.3941 8.77299 28.5831 7.37399 31.0611H3.36801C3.79601 29.1611 4.34403 27.3671 4.58603 25.5231C4.96803 22.5751 5.21504 19.5971 5.35904 16.6231C5.38104 16.0751 4.69199 15.4231 4.22299 14.9331C2.91599 13.5581 1.55199 12.2431 0.0379944 10.7331" fill="#004274"/>
<path d="M32.293 7.67911C32.3269 8.33818 32.2258 8.99724 31.9957 9.61579C31.7657 10.2343 31.4116 10.7993 30.9552 11.276C30.4988 11.7527 29.9498 12.1311 29.3419 12.3878C28.7339 12.6446 28.0799 12.7743 27.42 12.7691C26.7613 12.8014 26.1031 12.6971 25.4867 12.4627C24.8703 12.2282 24.3091 11.8688 23.8384 11.407C23.3676 10.9452 22.9975 10.3909 22.7513 9.77915C22.5052 9.16736 22.3883 8.51128 22.408 7.85212C22.3473 7.17408 22.4269 6.49079 22.6419 5.84488C22.8568 5.19898 23.2026 4.60429 23.6576 4.09791C24.1126 3.59152 24.6669 3.1843 25.2862 2.90162C25.9055 2.61893 26.5764 2.46685 27.257 2.45487C27.9377 2.44289 28.6135 2.57126 29.2423 2.83197C29.8712 3.09269 30.4395 3.48016 30.912 3.97022C31.3845 4.46028 31.751 5.04243 31.9886 5.68036C32.2262 6.3183 32.3298 6.99836 32.293 7.67811" fill="#004274"/>
<path d="M15.332 7.55606C15.364 10.6201 13.493 12.6561 10.592 12.7141C9.91423 12.7454 9.23732 12.6352 8.60446 12.3905C7.9716 12.1459 7.39661 11.7721 6.91617 11.2929C6.43573 10.8138 6.06041 10.2399 5.814 9.6077C5.56759 8.97551 5.45555 8.29893 5.48502 7.62106C5.49666 6.29534 6.01342 5.02396 6.93003 4.0661C7.84664 3.10824 9.09408 2.53602 10.418 2.46606C11.0764 2.47248 11.7269 2.60982 12.3318 2.87009C12.9366 3.13035 13.4836 3.50832 13.9409 3.98203C14.3982 4.45573 14.7567 5.01568 14.9955 5.62927C15.2343 6.24286 15.3487 6.89784 15.332 7.55606" fill="#004274"/>
<path d="M30.681 3.30099L28.722 2.60101L29.859 0.88501L30.916 2.84201L32.567 3.28601L31.551 5.23599L30.681 3.30099Z" fill="#004274"/>
<path d="M30.681 3.30099L28.722 2.60101L29.859 0.88501L30.916 2.84201L32.567 3.28601L31.551 5.23599L30.681 3.30099Z" fill="#004274"/>
</svg>
