<svg xmlns="http://www.w3.org/2000/svg" width="73.93" height="73.93" viewBox="0 0 73.93 73.93">
	<g id="lady-pool" transform="translate(-1383.14 -3903.479)">
		<path id="Path_649" data-name="Path 649" d="M1072.207,437.119a12.788,12.788,0,0,1-.252-11.1l.4-.957a8.059,8.059,0,0,0,.781-2.362,8.271,8.271,0,0,0-.64-3.333,37.495,37.495,0,0,1-2.262-6.926.806.806,0,0,0-.786-.632h-.052a.707.707,0,0,0-.526.236.7.7,0,0,0-.168.548c.2,1.746.656,5.806.423,5.934a10.929,10.929,0,0,0-4.516,4.914.9.9,0,0,1-1.671,0,10.92,10.92,0,0,0-4.513-4.914c-.233-.13.222-4.231.429-5.961a.675.675,0,0,0-.166-.529.688.688,0,0,0-.51-.228h-.1a.769.769,0,0,0-.751.607,37.488,37.488,0,0,1-2.27,6.953,8.262,8.262,0,0,0-.64,3.33,7.983,7.983,0,0,0,.781,2.362l.4.966a12.779,12.779,0,0,1-.258,11.094,2.019,2.019,0,0,0,1.036,2.85,9.977,9.977,0,0,1,2.82,1.9,9.734,9.734,0,0,1,2.856,3.846.753.753,0,0,0,.71.5h2.026a.756.756,0,0,0,.71-.5,12.083,12.083,0,0,1,5.668-5.736,2.011,2.011,0,0,0,1.044-2.85Z" transform="translate(356.33 3511.438)" fill="#004274" />
	</g>
</svg>
