<svg xmlns="http://www.w3.org/2000/svg" width="73.93" height="73.93" viewBox="0 0 73.93 73.93">
	<g id="mosque" transform="translate(-279.111 -4212.305)">
		<path id="Path_651" data-name="Path 651" d="M680.571,538.206V536.18a3.457,3.457,0,0,0,2.308-3.262h-2.308a1.154,1.154,0,1,1-1.153-1.155v-2.305a3.461,3.461,0,0,0-1.155,6.723v2.026l-1.294,1.294a3.44,3.44,0,0,0-1.011,2.449v5.966h-2.384v-2.1a12.684,12.684,0,0,0-7.016-11.347l-2.213-1.109v-1.79a3.5,3.5,0,0,0,2.305-3.341h-2.305a1.156,1.156,0,1,1-2.308,0,1.152,1.152,0,0,1,1.153-1.153v-2.308a3.459,3.459,0,0,0-3.46,3.461,3.5,3.5,0,0,0,2.308,3.341v1.79l-2.213,1.109a12.683,12.683,0,0,0-7.016,11.347v2.1h-2.384v-5.966a3.443,3.443,0,0,0-1.014-2.449l-1.294-1.294V536.18a3.457,3.457,0,0,0,2.308-3.262h-2.308a1.153,1.153,0,1,1-1.153-1.155v-2.305a3.46,3.46,0,0,0-1.153,6.723v2.026l-1.294,1.294a3.443,3.443,0,0,0-1.014,2.449V564.14h39.374V541.949a3.442,3.442,0,0,0-1.014-2.449Zm-4.613,15-1.155-1.153-1.771,1.771a5.729,5.729,0,0,0-1.69,4.079v3.932h-2.384v-2.991a5.737,5.737,0,0,0-3.189-5.161l-2.579-1.288-2.579,1.288a5.739,5.739,0,0,0-3.186,5.161v2.991h-2.387V557.9a5.739,5.739,0,0,0-1.687-4.079l-1.774-1.771-1.153,1.153V550.22h25.533Zm-9.307,8.629h-6.921v-2.991a3.446,3.446,0,0,1,1.915-3.1l1.546-.773,1.549.773a3.443,3.443,0,0,1,1.912,3.1Zm-5.8-25.305,2.335-1.166,2.338,1.166a10.372,10.372,0,0,1,4.562,4.464h-13.8A10.359,10.359,0,0,1,660.855,536.528Zm-5.738,9.286a10.454,10.454,0,0,1,.3-2.514h15.542a10.6,10.6,0,0,1,.3,2.514v2.1h-2.308v-2.308H666.65v2.308h-2.305v-2.308h-2.308v2.308h-2.308v-2.308h-2.305v2.308h-2.308Zm-9.3-3.865c0-.588.3-.784,1.153-1.633.843.846,1.153,1.044,1.153,1.633V543.3h-2.305Zm0,19.884V545.607h2.305v16.226Zm4.613-3.932a1.551,1.551,0,1,1,2.308,0v3.932h-2.308Zm25.533,3.932H673.65V557.9a1.551,1.551,0,1,1,2.308,0Zm4.613,0h-2.308V545.607h2.308ZM678.263,543.3v-1.351a1.149,1.149,0,0,1,.339-.816l.816-.816.816.816a1.145,1.145,0,0,1,.336.816V543.3Z" transform="translate(-347.115 3704.816)" fill="#004274" />
	</g>
</svg>
