<svg width="39" height="26" viewBox="0 0 39 26" fill="none" xmlns="http://www.w3.org/2000/svg">
<path d="M34.706 20.3262C34.5089 20.5517 34.2658 20.7323 33.9932 20.8561C33.7205 20.9799 33.4245 21.044 33.125 21.044C32.8255 21.044 32.5295 20.9799 32.2568 20.8561C31.9842 20.7323 31.7411 20.5517 31.5439 20.3262C30.9065 19.594 30.1202 19.0063 29.2375 18.6023C28.3548 18.1983 27.396 17.9873 26.4252 17.9834C25.4545 17.9795 24.4941 18.1829 23.6082 18.5798C22.7222 18.9767 21.9312 19.5581 21.288 20.2852C21.0919 20.5076 20.8506 20.6855 20.5801 20.8071C20.3097 20.9287 20.0165 20.9911 19.72 20.9902C19.423 20.9897 19.1294 20.9267 18.8584 20.8052C18.5874 20.6837 18.345 20.5066 18.147 20.2852C17.507 19.5613 16.7205 18.9817 15.8397 18.5847C14.9588 18.1877 14.0037 17.9824 13.0375 17.9824C12.0713 17.9824 11.1161 18.1877 10.2352 18.5847C9.35436 18.9817 8.56794 19.5613 7.92798 20.2852C7.73101 20.5063 7.48959 20.6834 7.21954 20.8049C6.9495 20.9264 6.6569 20.9896 6.36078 20.9904C6.06465 20.9911 5.7717 20.9294 5.50104 20.8093C5.23037 20.6892 4.98807 20.5133 4.78998 20.2932C3.78366 19.1548 2.42316 18.3886 0.927979 18.1182V22.2662C1.26551 22.4265 1.56639 22.6545 1.81195 22.9362C2.38355 23.5768 3.08427 24.0893 3.86798 24.44C4.65169 24.7906 5.50068 24.9715 6.35925 24.9707C7.21783 24.97 8.06658 24.7876 8.84967 24.4356C9.63276 24.0836 10.3325 23.5698 10.903 22.9282C11.1708 22.6263 11.4997 22.3846 11.8678 22.2191C12.2359 22.0537 12.6349 21.9681 13.0385 21.9681C13.442 21.9681 13.8411 22.0537 14.2092 22.2191C14.5773 22.3846 14.9061 22.6263 15.174 22.9282C15.7432 23.5727 16.4429 24.0887 17.2267 24.4422C18.0106 24.7957 18.8606 24.9785 19.7205 24.9785C20.5803 24.9785 21.4303 24.7957 22.2142 24.4422C22.998 24.0887 23.6977 23.5727 24.267 22.9282C24.5354 22.6249 24.8655 22.3823 25.2352 22.2168C25.6049 22.0513 26.0057 21.9666 26.4108 21.9684C26.8158 21.9702 27.2158 22.0585 27.584 22.2273C27.9523 22.3961 28.2802 22.6415 28.546 22.9472C29.116 23.602 29.8199 24.127 30.61 24.4868C31.4002 24.8465 32.2583 25.0327 33.1265 25.0327C33.9947 25.0327 34.8528 24.8465 35.6429 24.4868C36.4331 24.127 37.1369 23.602 37.707 22.9472C38.0527 22.5541 38.4991 22.2627 38.998 22.1042V18.0792C37.3396 18.2764 35.8116 19.0764 34.705 20.3272" fill="#004274"/>
<path d="M35.395 11.5343C35.3968 12.5057 35.1103 13.4558 34.5719 14.2643C34.0334 15.0728 33.2672 15.7035 32.3702 16.0763C31.4732 16.4491 30.4857 16.5475 29.5327 16.3588C28.5798 16.1702 27.7043 15.703 27.017 15.0166C26.3297 14.3301 25.8615 13.4551 25.6716 12.5024C25.4818 11.5497 25.579 10.5621 25.9507 9.66467C26.3224 8.7672 26.9521 8.0002 27.76 7.46076C28.5678 6.92131 29.5176 6.63369 30.489 6.63428C31.7892 6.63401 33.0363 7.14997 33.9563 8.06879C34.8762 8.9876 35.3937 10.2341 35.395 11.5343Z" fill="#004274"/>
<path d="M19.145 19.409C19.2195 19.4857 19.3087 19.5466 19.4072 19.5882C19.5057 19.6298 19.6116 19.6513 19.7185 19.6513C19.8254 19.6513 19.9313 19.6298 20.0298 19.5882C20.1283 19.5466 20.2174 19.4857 20.292 19.409C21.5406 18.0079 23.2321 17.0774 25.084 16.773C25.2198 16.0031 25.1561 15.2113 24.899 14.473C24.758 14.073 23.199 8.83004 23.199 8.83004C23.1051 8.10713 23.2725 7.37446 23.671 6.76403C24.33 5.80403 25.708 5.14204 27.649 4.85204C27.9072 4.81324 28.1552 4.72394 28.3788 4.58929C28.6025 4.45463 28.7975 4.27725 28.9526 4.06725C29.1078 3.85725 29.2199 3.61876 29.2829 3.36538C29.3458 3.112 29.3583 2.84872 29.3195 2.59054C29.2807 2.33236 29.1914 2.08436 29.0568 1.86068C28.9221 1.637 28.7447 1.44204 28.5347 1.28692C28.3247 1.1318 28.0862 1.01955 27.8328 0.956596C27.5794 0.893647 27.3162 0.88123 27.058 0.920036C23.958 1.38104 21.705 2.59604 20.389 4.52004C19.877 5.27797 19.5194 6.12933 19.3365 7.0255C19.1536 7.92168 19.149 8.84509 19.323 9.74303L19.749 11.454C19.4876 11.4914 19.2306 11.5551 18.982 11.644L10.949 14.472C10.0971 14.7752 9.35189 15.3198 8.80426 16.0393C8.25663 16.7588 7.93028 17.6222 7.86499 18.524C9.49021 17.1734 11.5781 16.5099 13.6848 16.6744C15.7916 16.8389 17.7511 17.8185 19.147 19.405" fill="#004274"/>
</svg>
