<svg width="36" height="36" viewBox="0 0 36 36" fill="none" xmlns="http://www.w3.org/2000/svg">
<path d="M26 15V10.72C26.0429 8.55189 25.2253 6.45504 23.726 4.88829C22.2268 3.32154 20.1679 2.41247 18 2.36C15.8321 2.41247 13.7732 3.32154 12.274 4.88829C10.7747 6.45504 9.95705 8.55189 10 10.72V15H7V32C7 32.5304 7.21071 33.0391 7.58579 33.4142C7.96086 33.7893 8.46957 34 9 34H27C27.5304 34 28.0391 33.7893 28.4142 33.4142C28.7893 33.0391 29 32.5304 29 32V15H26ZM19 25.23V28H17V25.14C16.5131 24.8895 16.1266 24.4801 15.9044 23.9796C15.6823 23.4792 15.638 22.9178 15.7788 22.3887C15.9196 21.8596 16.2371 21.3946 16.6786 21.0707C17.12 20.7469 17.659 20.5837 18.2059 20.6084C18.7529 20.633 19.275 20.8439 19.6856 21.206C20.0963 21.5682 20.3707 22.0599 20.4634 22.5995C20.5561 23.1392 20.4615 23.6942 20.1953 24.1727C19.9292 24.6512 19.5074 25.0242 19 25.23V25.23ZM24 15H12V10.72C11.9569 9.08224 12.5638 7.49399 13.688 6.30228C14.8123 5.11057 16.3625 4.41228 18 4.36C19.6375 4.41228 21.1877 5.11057 22.312 6.30228C23.4362 7.49399 24.0431 9.08224 24 10.72V15Z" fill="#004274"/>
</svg>
