<svg width="44" height="42" viewBox="0 0 44 42" fill="none" xmlns="http://www.w3.org/2000/svg">
<path d="M42.7469 7.56793C42.3573 7.1007 41.8689 6.72555 41.317 6.46948C40.7651 6.21342 40.1633 6.08277 39.5549 6.08691H12.8939C12.1466 6.08711 11.4141 6.29481 10.778 6.68689L9.41394 1.92493C9.30622 1.54598 9.07802 1.21239 8.76392 0.974609C8.44982 0.736824 8.06693 0.607775 7.67297 0.606934H1.64697C1.28308 0.607198 0.934159 0.751758 0.676758 1.00897C0.419356 1.26619 0.274455 1.61499 0.273926 1.97888V2.12292C0.274455 2.48681 0.419356 2.83562 0.676758 3.09283C0.934159 3.35005 1.28308 3.49467 1.64697 3.49493H6.83191L9.47595 12.8459L13.1179 25.7519C12.0165 26.0268 11.0497 26.6861 10.3916 27.6111C9.73351 28.536 9.42757 29.6657 9.52893 30.7963C9.63029 31.927 10.1322 32.9841 10.9443 33.7773C11.7564 34.5704 12.8252 35.0473 13.9579 35.1219C13.7328 35.7615 13.6502 36.4426 13.7157 37.1174C13.7812 37.7923 13.9932 38.4447 14.337 39.0291C14.6809 39.6135 15.1482 40.1157 15.7063 40.5008C16.2644 40.8858 16.8998 41.1444 17.5682 41.2584C18.2366 41.3723 18.9219 41.3389 19.576 41.1606C20.2302 40.9822 20.8374 40.6632 21.3555 40.2257C21.8735 39.7883 22.2898 39.243 22.5752 38.6279C22.8606 38.0129 23.0083 37.343 23.0079 36.6649C23.0094 36.1432 22.9214 35.625 22.7479 35.1329H28.199C27.9687 35.7968 27.8891 36.5035 27.9659 37.2019C28.0704 38.0978 28.4325 38.9442 29.0084 39.6384C29.5843 40.3325 30.3492 40.8447 31.2104 41.1127C32.0717 41.3808 32.9922 41.3932 33.8604 41.1484C34.7285 40.9037 35.5069 40.4123 36.1013 39.7339C36.6957 39.0555 37.0806 38.2192 37.2091 37.3264C37.3376 36.4336 37.2042 35.5227 36.8253 34.7042C36.4464 33.8857 35.8382 33.1947 35.0743 32.715C34.3105 32.2354 33.4238 31.9876 32.522 32.0019H14.309C13.8819 32.0057 13.4697 31.8452 13.1577 31.5535C12.8457 31.2618 12.6578 30.8613 12.6329 30.4349C12.6242 30.2152 12.66 29.996 12.7382 29.7905C12.8163 29.5849 12.9352 29.3974 13.0878 29.239C13.2403 29.0807 13.4234 28.9548 13.6259 28.869C13.8283 28.7832 14.0461 28.7393 14.266 28.7399H35.9939C36.8932 28.7381 37.7661 28.4361 38.4744 27.882C39.1826 27.3279 39.6857 26.5533 39.9039 25.6809L43.528 11.1019C43.683 10.4928 43.6931 9.8558 43.5575 9.24207C43.4219 8.62833 43.1443 8.05496 42.7469 7.56793V7.56793ZM32.6089 35.1239C32.9123 35.1235 33.2092 35.2131 33.4617 35.3814C33.7142 35.5497 33.911 35.7891 34.0275 36.0693C34.1439 36.3495 34.1746 36.6579 34.1157 36.9556C34.0568 37.2532 33.911 37.5267 33.6967 37.7415C33.4823 37.9563 33.2091 38.1027 32.9115 38.1622C32.6139 38.2216 32.3055 38.1915 32.025 38.0756C31.7446 37.9597 31.5048 37.7633 31.3361 37.5111C31.1673 37.2589 31.0771 36.9623 31.0769 36.6589C31.0777 36.2525 31.2393 35.8631 31.5264 35.5754C31.8134 35.2878 32.2025 35.1255 32.6089 35.1239V35.1239ZM18.361 35.1239C18.6643 35.1241 18.9607 35.2142 19.2128 35.3829C19.4649 35.5515 19.6614 35.7911 19.7773 36.0714C19.8933 36.3516 19.9236 36.6599 19.8644 36.9574C19.8052 37.2549 19.6591 37.5281 19.4446 37.7426C19.2301 37.9571 18.9569 38.1031 18.6594 38.1624C18.362 38.2216 18.0536 38.1913 17.7733 38.0753C17.4931 37.9593 17.2535 37.7629 17.0848 37.5108C16.9162 37.2587 16.8261 36.9622 16.8259 36.6589C16.8267 36.2527 16.9882 35.8634 17.275 35.5758C17.5619 35.2882 17.9508 35.1257 18.3569 35.1239H18.361ZM12.7279 12.8319L12.028 10.3639C11.9877 10.2299 11.9804 10.0881 12.0068 9.95068C12.0333 9.81327 12.0927 9.68434 12.1799 9.57489C12.2635 9.46321 12.3721 9.37265 12.4969 9.31049C12.6218 9.24832 12.7594 9.2163 12.8989 9.21692H15.8219L16.6219 12.8399H12.731V12.8319H12.7279ZM13.606 15.9539H17.3059L18.0409 19.3059H14.5509L13.606 15.9539ZM17.006 25.6029C16.8085 25.6028 16.6165 25.5377 16.4596 25.4177C16.3027 25.2977 16.1897 25.1295 16.1379 24.9389L15.428 22.4279H18.72L19.4199 25.5929H17.007V25.6039L17.006 25.6029ZM24.8159 25.6029H22.616L21.9159 22.4359H24.8159V25.6029ZM24.8159 19.3029H21.231L20.496 15.9509H24.8159V19.3029ZM24.8159 12.8289H19.8159L19.016 9.20593H24.8159V12.8289ZM30.4159 25.5989H27.9509V22.4319H31.0809L30.4159 25.5989ZM31.7419 19.2989H27.95V15.9469H32.45L31.7419 19.2989ZM27.95 12.8249V9.2019H33.8669L33.105 12.8249H27.95ZM36.8889 24.9119C36.8418 25.1093 36.7293 25.285 36.5697 25.4105C36.4101 25.5359 36.2129 25.6037 36.0099 25.6029H33.61L34.282 22.4379H37.5099L36.8889 24.9119ZM38.2799 19.2979H34.933L35.6429 15.9459H39.1119L38.2799 19.2979ZM40.5039 10.3209L39.8849 12.8159H36.2969L37.059 9.19293H39.6249C39.7623 9.19013 39.8985 9.22045 40.0217 9.28137C40.145 9.34229 40.2517 9.432 40.3329 9.54291C40.4216 9.65099 40.4828 9.77891 40.5114 9.91577C40.5399 10.0526 40.535 10.1944 40.4969 10.3289L40.5039 10.3209Z" fill="#004274"/>
</svg>
